<?xml version="1.0" encoding="UTF-8"?>
<svg version="1.1" xmlns="http://www.w3.org/2000/svg" width="200" height="188">
<path d="M0 0 C66 0 132 0 200 0 C200 62.04 200 124.08 200 188 C134 188 68 188 0 188 C0 125.96 0 63.92 0 0 Z " fill="#FEFEFE" transform="translate(0,0)"/>
<path d="M0 0 C-0.33 1.32 -0.66 2.64 -1 4 C-6.09469013 3.08751819 -10.91854145 1.50251954 -15.84375 -0.0625 C-29.38980217 -4.08607985 -44.37344559 -3.51693131 -57 3 C-60.23763597 5.11129682 -63.11534694 7.43650116 -66 10 C-66.83144531 10.61359375 -67.66289063 11.2271875 -68.51953125 11.859375 C-75.55945398 17.93477288 -80.20468747 28.40884742 -81.3125 37.58984375 C-81.78735692 48.40767798 -79.55366227 61.58355426 -74 71 C-73.34 71.33 -72.68 71.66 -72 72 C-71.896875 70.96875 -71.79375 69.9375 -71.6875 68.875 C-71 65 -71 65 -69.3125 62.25 C-67.57278338 57.94213028 -68.48239333 55.23774777 -69.4296875 50.7890625 C-71.5294457 40.52038198 -68.35912711 32.04870943 -62.875 23.25 C-56.68352012 15.35586316 -47.85390526 10.36007894 -38 9 C-25.37922299 7.93173592 -16.04707864 10.35222372 -6 18 C-5.3709375 18.4640625 -4.741875 18.928125 -4.09375 19.40625 C6.06382594 27.4253889 12.32546913 40.35265843 14 53 C14.24252388 57.35890301 14.23540456 61.6981428 14.1875 66.0625 C14.1865332 67.74182617 14.1865332 67.74182617 14.18554688 69.45507812 C14.09926089 85.80147822 14.09926089 85.80147822 12 90 C11.01 90 10.02 90 9 90 C9.02618408 88.9577124 9.05236816 87.9154248 9.0793457 86.84155273 C9.1712244 82.89988478 9.22773783 78.95830687 9.2746582 75.01586914 C9.29949431 73.32364891 9.33337591 71.63153231 9.37719727 69.93969727 C9.79835162 53.23721092 7.12377232 37.99085467 -4.6875 25.16796875 C-13.2385433 17.34930647 -23.09263461 13.47748537 -34.6171875 13.6875 C-44.43563648 14.59451607 -52.74181794 19.06702406 -59.14453125 26.484375 C-61.7267027 31.37691037 -61.91188311 35.91582111 -62.25 41.375 C-62.36601563 42.90833984 -62.36601563 42.90833984 -62.484375 44.47265625 C-62.67192017 46.98107287 -62.84329281 49.48949993 -63 52 C-62.34 52 -61.68 52 -61 52 C-60.67 52.66 -60.34 53.32 -60 54 C-57.69 54 -55.38 54 -53 54 C-53.33 53.34 -53.66 52.68 -54 52 C-54.09706713 49.85595831 -54.12978536 47.70873249 -54.125 45.5625 C-54.12886719 43.83193359 -54.12886719 43.83193359 -54.1328125 42.06640625 C-53.89557125 36.58892455 -51.90818108 34.64171418 -48 31 C-42.52419378 26.22622022 -37.73136116 23.3753753 -30.37109375 23.6484375 C-22.7293952 24.78147353 -17.26635032 28.62856709 -12.6953125 34.74609375 C-7.59402573 42.24709826 -5.49902943 49.98252975 -6 59 C-7.65 58.67 -9.3 58.34 -11 58 C-14.30304315 61.3413393 -16.8908175 64.14875007 -17.17578125 68.98046875 C-16.90560889 71.69271858 -16.54007311 74.32909299 -16 77 C-14.35 77.66 -12.7 78.32 -11 79 C-10.62663301 84.58614459 -11.69792592 88.48960106 -14.25 93.375 C-14.55035156 94.00277344 -14.85070312 94.63054687 -15.16015625 95.27734375 C-17.42556674 99.74068441 -17.42556674 99.74068441 -20.05078125 100.92578125 C-22 101 -22 101 -24.9375 100.8125 C-29.63936947 101.10036956 -31.79752463 103.79752463 -35 107 C-35 106.34 -35 105.68 -35 105 C-37.38564077 105.57584432 -39.66682784 106.22227595 -42 107 C-45.94059238 107.08604943 -49.87546267 106.85705972 -53.8125 106.6875 C-55.43381836 106.63432617 -55.43381836 106.63432617 -57.08789062 106.58007812 C-62.4238768 106.36061154 -66.98908893 106.01085105 -72 104 C-74.70953551 103.74803871 -74.70953551 103.74803871 -77 104 C-77.33 104.33 -77.66 104.66 -78 105 C-80.01964199 105.07244053 -82.04167124 105.08377188 -84.0625 105.0625 C-85.16722656 105.05347656 -86.27195312 105.04445313 -87.41015625 105.03515625 C-88.26480469 105.02355469 -89.11945313 105.01195312 -90 105 C-93.51742805 99.99032974 -94.42400439 97.07964035 -93.5546875 91.015625 C-93 89 -93 89 -91 86 C-90.34 86 -89.68 86 -89 86 C-89.33 85.01 -89.66 84.02 -90 83 C-87.36 82.67 -84.72 82.34 -82 82 C-83.32 81.67 -84.64 81.34 -86 81 C-86 79.02 -86 77.04 -86 75 C-86.99 75 -87.98 75 -89 75 C-88.84015625 73.96875 -88.6803125 72.9375 -88.515625 71.875 C-87.88453095 66.85272706 -87.87777796 61.85225097 -87.81201172 56.79638672 C-87.53665679 39.93902768 -86.3596136 24.50563632 -75 11 C-74.34 11 -73.68 11 -73 11 C-72.73703125 10.39800781 -72.4740625 9.79601562 -72.203125 9.17578125 C-67.91235517 1.41617478 -56.86506099 -2.79665254 -49 -6 C-32.38989483 -10.63903529 -15.50967251 -6.50015515 0 0 Z " fill="#F2F9FA" transform="translate(137,37)"/>
<path d="M0 0 C4.04684608 3.02190957 7.55122165 6.07500645 10.390625 10.28515625 C10.86113281 10.96964844 11.33164063 11.65414062 11.81640625 12.359375 C19.019162 23.45841054 21.02281699 34.46330617 20.703125 47.53515625 C20.69345703 48.7365625 20.68378906 49.93796875 20.67382812 51.17578125 C20.59266148 57.61264876 20.23283366 63.90354263 19.390625 70.28515625 C20.380625 70.28515625 21.370625 70.28515625 22.390625 70.28515625 C22.720625 69.62515625 23.050625 68.96515625 23.390625 68.28515625 C23.82375 69.02765625 24.256875 69.77015625 24.703125 70.53515625 C26.24006548 73.24337236 26.24006548 73.24337236 28.078125 75.09765625 C30.05927324 78.39956998 30.0426362 81.5927885 29.390625 85.28515625 C26.40533088 90.94692096 26.40533088 90.94692096 22.390625 92.28515625 C14.38132988 92.72202689 14.38132988 92.72202689 11.390625 90.28515625 C10.140625 87.16015625 10.140625 87.16015625 9.390625 84.28515625 C8.730625 84.28515625 8.070625 84.28515625 7.390625 84.28515625 C6.895625 79.83015625 6.895625 79.83015625 6.390625 75.28515625 C1.42250233 76.31550957 1.42250233 76.31550957 -2.609375 79.22265625 C-3.92059257 83.23826007 -3.38252924 86.43393263 -2.73828125 90.56640625 C-2.58742196 93.74816586 -3.08642984 95.49859096 -4.609375 98.28515625 C-7.54647223 100.81547241 -10.86975966 102.30399685 -14.7734375 102.26171875 C-18.31645287 101.55842356 -20.33719699 100.51650756 -23.109375 98.16015625 C-25.03566439 94.46810158 -25.54563733 91.31344461 -24.609375 87.28515625 C-22.84789065 84.26918305 -20.78196622 81.87145186 -17.609375 80.28515625 C-16.06913504 80.21565084 -14.52602512 80.20063268 -12.984375 80.22265625 C-12.16710937 80.23167969 -11.34984375 80.24070312 -10.5078125 80.25 C-9.88132813 80.26160156 -9.25484375 80.27320313 -8.609375 80.28515625 C-7.45057836 78.10371401 -6.30750122 75.91612608 -5.171875 73.72265625 C-4.84638672 73.11357422 -4.52089844 72.50449219 -4.18554688 71.87695312 C-2.00566279 67.62955011 -1.04418131 64.04352958 -0.609375 59.28515625 C-1.393125 59.05828125 -2.176875 58.83140625 -2.984375 58.59765625 C-5.609375 57.28515625 -5.609375 57.28515625 -6.921875 55.03515625 C-7.74541207 51.74100795 -8.14088423 49.67352756 -7.609375 46.28515625 C-6.18218284 44.19762145 -4.61347529 42.2763399 -3.01171875 40.3203125 C-0.92967313 37.29873654 -0.76020021 34.90496137 -0.609375 31.28515625 C-0.279375 31.28515625 0.050625 31.28515625 0.390625 31.28515625 C0.390625 33.92515625 0.390625 36.56515625 0.390625 39.28515625 C1.710625 39.28515625 3.030625 39.28515625 4.390625 39.28515625 C2.64243294 27.06974498 2.64243294 27.06974498 -2.5234375 15.984375 C-3.609375 14.28515625 -3.609375 14.28515625 -4.609375 11.28515625 C-6.43487162 10.166194 -6.43487162 10.166194 -8.609375 9.28515625 C-9.28355469 8.93195313 -9.95773438 8.57875 -10.65234375 8.21484375 C-16.01209339 5.5789013 -20.64237188 4.10204356 -26.609375 5.28515625 C-32.83232818 7.67468893 -36.61260745 11.07724701 -40.609375 16.28515625 C-41.269375 16.28515625 -41.929375 16.28515625 -42.609375 16.28515625 C-42.609375 22.22515625 -42.609375 28.16515625 -42.609375 34.28515625 C-46.074375 34.78015625 -46.074375 34.78015625 -49.609375 35.28515625 C-50.104375 33.80015625 -50.104375 33.80015625 -50.609375 32.28515625 C-51.269375 32.28515625 -51.929375 32.28515625 -52.609375 32.28515625 C-52.67323718 28.61662902 -52.65944422 24.9538646 -52.609375 21.28515625 C-52.60550781 20.32867187 -52.60164063 19.3721875 -52.59765625 18.38671875 C-52.31502846 11.4282277 -50.6766243 7.12931911 -45.609375 2.28515625 C-31.71471991 -9.18510311 -15.0970121 -9.92153939 0 0 Z " fill="#F8FAF6" transform="translate(126.609375,56.71484375)"/>
<path d="M0 0 C-0.33 1.32 -0.66 2.64 -1 4 C-6.09469013 3.08751819 -10.91854145 1.50251954 -15.84375 -0.0625 C-29.38980217 -4.08607985 -44.37344559 -3.51693131 -57 3 C-60.23763597 5.11129682 -63.11534694 7.43650116 -66 10 C-66.83144531 10.61359375 -67.66289063 11.2271875 -68.51953125 11.859375 C-75.55945398 17.93477288 -80.20468747 28.40884742 -81.3125 37.58984375 C-81.78735692 48.40767798 -79.55366227 61.58355426 -74 71 C-73.34 71.33 -72.68 71.66 -72 72 C-71.8453125 70.453125 -71.8453125 70.453125 -71.6875 68.875 C-71 65 -71 65 -69.3125 62.25 C-67.57278338 57.94213028 -68.48239333 55.23774777 -69.4296875 50.7890625 C-71.5294457 40.52038198 -68.35912711 32.04870943 -62.875 23.25 C-56.68352012 15.35586316 -47.85390526 10.36007894 -38 9 C-25.37922299 7.93173592 -16.04707864 10.35222372 -6 18 C-5.3709375 18.4640625 -4.741875 18.928125 -4.09375 19.40625 C6.06382594 27.4253889 12.32546913 40.35265843 14 53 C14.24252388 57.35890301 14.23540456 61.6981428 14.1875 66.0625 C14.1865332 67.74182617 14.1865332 67.74182617 14.18554688 69.45507812 C14.09926089 85.80147822 14.09926089 85.80147822 12 90 C11.01 90 10.02 90 9 90 C9.02618408 88.9577124 9.05236816 87.9154248 9.0793457 86.84155273 C9.1712244 82.89988478 9.22773783 78.95830687 9.2746582 75.01586914 C9.29949431 73.32364891 9.33337591 71.63153231 9.37719727 69.93969727 C9.79835162 53.23721092 7.12377232 37.99085467 -4.6875 25.16796875 C-13.2385433 17.34930647 -23.09263461 13.47748537 -34.6171875 13.6875 C-44.43563648 14.59451607 -52.74181794 19.06702406 -59.14453125 26.484375 C-61.7267027 31.37691037 -61.91188311 35.91582111 -62.25 41.375 C-62.36601563 42.90833984 -62.36601563 42.90833984 -62.484375 44.47265625 C-62.67192017 46.98107287 -62.84329281 49.48949993 -63 52 C-62.34 52 -61.68 52 -61 52 C-60.67 52.66 -60.34 53.32 -60 54 C-57.69 54 -55.38 54 -53 54 C-53.33 53.34 -53.66 52.68 -54 52 C-54.09706713 49.85595831 -54.12978536 47.70873249 -54.125 45.5625 C-54.12886719 43.83193359 -54.12886719 43.83193359 -54.1328125 42.06640625 C-53.89557125 36.58892455 -51.90818108 34.64171418 -48 31 C-42.52419378 26.22622022 -37.73136116 23.3753753 -30.37109375 23.6484375 C-22.7293952 24.78147353 -17.26635032 28.62856709 -12.6953125 34.74609375 C-7.59402573 42.24709826 -5.49902943 49.98252975 -6 59 C-7.32 59 -8.64 59 -10 59 C-10.11214844 58.01773438 -10.11214844 58.01773438 -10.2265625 57.015625 C-11.48948663 48.24944572 -14.25566404 38.81087177 -21.1875 32.8125 C-26.53379045 29.36711282 -31.80424121 29.36181025 -38 30 C-42.47663127 32.15837579 -44.98940477 34.44970553 -47 39 C-48.52721916 43.86801108 -47.96839626 46.66063636 -45.8125 51.125 C-43.84911053 54.72910491 -41.65950339 57.86558529 -39 61 C-37.20954383 66.37136851 -37.45953496 71.32171383 -39.1875 76.6875 C-42.06550098 81.94729489 -44.99149755 86.39948383 -50.8515625 88.5234375 C-57.09726006 89.90884678 -63.63556899 90.26920541 -69.3125 87 C-75.69761329 82.29097895 -80.47928064 76.56215808 -83 69 C-83.27714844 68.23042969 -83.55429688 67.46085937 -83.83984375 66.66796875 C-88.1024283 52.93733926 -88.18913127 35.09584297 -82 22 C-79.9077689 18.15104033 -77.76979874 14.40426003 -75 11 C-74.34 11 -73.68 11 -73 11 C-72.73703125 10.39800781 -72.4740625 9.79601562 -72.203125 9.17578125 C-67.91235517 1.41617478 -56.86506099 -2.79665254 -49 -6 C-32.38989483 -10.63903529 -15.50967251 -6.50015515 0 0 Z " fill="#E4F5F9" transform="translate(137,37)"/>
<path d="M0 0 C1.23762085 0.0002417 1.23762085 0.0002417 2.50024414 0.00048828 C10.91546446 0.1544796 19.62520477 1.55639129 27.16015625 5.5078125 C29.26404304 6.65923459 29.26404304 6.65923459 33 6.375 C33.33 5.715 33.66 5.055 34 4.375 C34.66 4.375 35.32 4.375 36 4.375 C36 3.715 36 3.055 36 2.375 C39.44388193 0.65305903 43.22688824 0.99703716 47 1.375 C51.54054054 3.45608108 51.54054054 3.45608108 53 6.375 C53.2704177 11.69321484 53.4229681 16.52906381 51 21.375 C46.45779132 24.08593088 42.28088362 25.375 37 25.375 C37 26.035 37 26.695 37 27.375 C37.66 27.375 38.32 27.375 39 27.375 C39.061875 28.32375 39.12375 29.2725 39.1875 30.25 C39.5896875 31.796875 39.5896875 31.796875 40 33.375 C42.46255685 34.82791273 42.46255685 34.82791273 45 35.375 C45 36.695 45 38.015 45 39.375 C45.66 39.375 46.32 39.375 47 39.375 C48.69908237 48.55713231 49.25758151 57.36090041 49.125 66.6875 C49.11597656 67.91662109 49.10695313 69.14574219 49.09765625 70.41210938 C49.07440453 73.39995544 49.04173123 76.38736484 49 79.375 C48.67 79.375 48.34 79.375 48 79.375 C47.98541748 78.74110352 47.97083496 78.10720703 47.95581055 77.45410156 C47.46838043 58.48738616 46.49822946 39.54372425 32 25.375 C26.02809868 20.48804126 20.41901539 16.5876888 13 14.375 C12.3915625 14.19324219 11.783125 14.01148438 11.15625 13.82421875 C2.62945279 12.04780266 -7.0281282 12.87750708 -15 16.375 C-17.56347003 18.0993072 -19.89673243 19.91771566 -22.22265625 21.94921875 C-24 23.375 -24 23.375 -26 23.375 C-26.2784375 23.94476563 -26.556875 24.51453125 -26.84375 25.1015625 C-27.99411795 27.36343462 -29.2345084 29.55082252 -30.5 31.75 C-35.31555865 40.47198528 -35.99156762 47.30409628 -33.75 56.9375 C-32.74842865 61.87628285 -33.37681955 64.40070472 -35.97265625 68.6484375 C-37.26265271 70.81641634 -37.68903888 72.88731103 -38 75.375 C-41 74.375 -41 74.375 -42.0625 72.58203125 C-47.80824538 57.90643993 -50.90104626 43.35471571 -44.5390625 28.48046875 C-37.80092819 14.88448708 -27.06350096 6.16514991 -12.76171875 1.265625 C-8.41862011 0.23735242 -4.44623064 -0.00817907 0 0 Z " fill="#F2F8FB" transform="translate(103,33.625)"/>
<path d="M0 0 C-0.33 1.32 -0.66 2.64 -1 4 C-6.09469013 3.08751819 -10.91854145 1.50251954 -15.84375 -0.0625 C-29.38980217 -4.08607985 -44.37344559 -3.51693131 -57 3 C-60.23763597 5.11129682 -63.11534694 7.43650116 -66 10 C-66.83144531 10.61359375 -67.66289063 11.2271875 -68.51953125 11.859375 C-71.2903926 14.25060653 -72.81031545 16.5180167 -74.625 19.6875 C-75.19476563 20.66074219 -75.76453125 21.63398437 -76.3515625 22.63671875 C-79.85035317 29.77524664 -81.54209628 36.16987195 -81.4375 44.125 C-81.42992676 44.94540771 -81.42235352 45.76581543 -81.41455078 46.61108398 C-81.10891832 58.11468842 -78.52319694 69.96521384 -71 79 C-67.18280022 82.55088352 -63.60448006 84.2714849 -58.375 84.5 C-53.3868169 84.19038864 -49.65239647 82.76635485 -46.1875 79.0625 C-43.40582992 74.23117829 -43.11809508 68.42208211 -44 63 C-45.65708152 60.02144841 -47.78997866 57.58116996 -50 55 C-53.17137573 50.03151135 -53.86947844 45.7639582 -53 40 C-50.7026563 32.75752664 -46.44405979 29.2195052 -40.1875 25.1875 C-34.23964603 22.97163284 -29.10838723 23.28955781 -23.25 25.6875 C-15.76647423 29.41627065 -11.07632433 35.79678086 -8.01953125 43.45703125 C-6.27175431 48.79882838 -5.68867946 53.39623032 -6 59 C-7.32 59 -8.64 59 -10 59 C-10.11214844 58.01773438 -10.11214844 58.01773438 -10.2265625 57.015625 C-11.48948663 48.24944572 -14.25566404 38.81087177 -21.1875 32.8125 C-26.53379045 29.36711282 -31.80424121 29.36181025 -38 30 C-42.47663127 32.15837579 -44.98940477 34.44970553 -47 39 C-48.52721916 43.86801108 -47.96839626 46.66063636 -45.8125 51.125 C-43.84911053 54.72910491 -41.65950339 57.86558529 -39 61 C-37.20954383 66.37136851 -37.45953496 71.32171383 -39.1875 76.6875 C-42.06550098 81.94729489 -44.99149755 86.39948383 -50.8515625 88.5234375 C-57.09726006 89.90884678 -63.63556899 90.26920541 -69.3125 87 C-75.69761329 82.29097895 -80.47928064 76.56215808 -83 69 C-83.27714844 68.23042969 -83.55429688 67.46085937 -83.83984375 66.66796875 C-88.1024283 52.93733926 -88.18913127 35.09584297 -82 22 C-79.9077689 18.15104033 -77.76979874 14.40426003 -75 11 C-74.34 11 -73.68 11 -73 11 C-72.73703125 10.39800781 -72.4740625 9.79601562 -72.203125 9.17578125 C-67.91235517 1.41617478 -56.86506099 -2.79665254 -49 -6 C-32.38989483 -10.63903529 -15.50967251 -6.50015515 0 0 Z " fill="#2E67CA" transform="translate(137,37)"/>
<path d="M0 0 C2.75 1.875 2.75 1.875 4 5 C4.59080768 10.01388137 4.85182942 13.72225586 2 18 C1.97783754 20.11992375 1.97783754 20.11992375 2.375 22.4375 C3.98316824 35.95003556 3.5610792 48.60128425 -4.9765625 59.8046875 C-10.42802797 65.71921182 -17.02948219 69.47952807 -25.15087891 70.1875 C-27.45837932 70.26729254 -29.75382434 70.27310601 -32.0625 70.25 C-33.22749023 70.26160156 -33.22749023 70.26160156 -34.41601562 70.2734375 C-39.02655173 70.2578218 -42.64234641 69.65850995 -47 68 C-49.70953551 67.74803871 -49.70953551 67.74803871 -52 68 C-52.33 68.33 -52.66 68.66 -53 69 C-55.01964199 69.07244053 -57.04167124 69.08377188 -59.0625 69.0625 C-60.16722656 69.05347656 -61.27195312 69.04445313 -62.41015625 69.03515625 C-63.26480469 69.02355469 -64.11945313 69.01195312 -65 69 C-68.44792183 64.08932346 -69.60930319 60.99972652 -68.62109375 55.01953125 C-67.74679306 52.17667933 -66.38124372 50.73181362 -64 49 C-60.52736727 47.26368364 -56.78806987 47.39809598 -53 48 C-50.24430553 50.18159145 -48.56411253 51.87177494 -47 55 C-46.86584528 57.6723621 -46.95681459 60.32250488 -47 63 C-35.73531743 66.10749864 -24.48207952 66.74113897 -14 61 C-7.71874725 57.23124835 -4.43837726 50.51668857 -2.6875 43.5625 C-1.25010137 35.70472081 -1.74022509 28.62674033 -4 21 C-4.86625 21.103125 -5.7325 21.20625 -6.625 21.3125 C-10.20862393 20.98068297 -12.13901964 20.14050033 -14.80078125 17.6953125 C-17.05665367 14.50622901 -17.32809026 10.82088448 -17 7 C-13.81527007 -1.19149285 -8.0276874 -1.12941257 0 0 Z " fill="#7FD2D9" transform="translate(112,73)"/>
<path d="M0 0 C12.35948725 -0.47894676 24.87123395 -0.78723717 36.16015625 5.1328125 C38.26404304 6.28423459 38.26404304 6.28423459 42 6 C42.33 5.34 42.66 4.68 43 4 C43.66 4 44.32 4 45 4 C45 3.34 45 2.68 45 2 C48.44388193 0.27805903 52.22688824 0.62203716 56 1 C60.54054054 3.08108108 60.54054054 3.08108108 62 6 C62.2704177 11.31821484 62.4229681 16.15406381 60 21 C55.45779132 23.71093088 51.28088362 25 46 25 C46 25.66 46 26.32 46 27 C46.66 27 47.32 27 48 27 C48.061875 27.94875 48.12375 28.8975 48.1875 29.875 C48.455625 30.90625 48.72375 31.9375 49 33 C51.46255685 34.45291273 51.46255685 34.45291273 54 35 C54 36.32 54 37.64 54 39 C54.66 39 55.32 39 56 39 C57.69908237 48.18213231 58.25758151 56.98590041 58.125 66.3125 C58.11597656 67.54162109 58.10695313 68.77074219 58.09765625 70.03710938 C58.07440453 73.02495544 58.04173123 76.01236484 58 79 C57.67 79 57.34 79 57 79 C56.98541748 78.36610352 56.97083496 77.73220703 56.95581055 77.07910156 C56.46838043 58.11238616 55.49822946 39.16872425 41 25 C36.25496778 21.26213456 31.50842419 17.54035562 26 15 C26 14.01 26 13.02 26 12 C24.700625 11.855625 23.40125 11.71125 22.0625 11.5625 C18.125 11.125 18.125 11.125 17 10 C15.55052466 9.78564883 14.09231731 9.62950251 12.6328125 9.5 C11.74722656 9.4175 10.86164063 9.335 9.94921875 9.25 C9.01722656 9.1675 8.08523437 9.085 7.125 9 C5.2939798 8.83656166 3.46323287 8.67002453 1.6328125 8.5 C0.40908936 8.39171875 0.40908936 8.39171875 -0.83935547 8.28125 C-3 8 -3 8 -6 7 C-5.25 5.0625 -5.25 5.0625 -4 3 C-1.875 2.25 -1.875 2.25 0 2 C0 1.34 0 0.68 0 0 Z " fill="#F7FBFA" transform="translate(94,34)"/>
<path d="M0 0 C0.33 0 0.66 0 1 0 C1 2.64 1 5.28 1 8 C2.32 8 3.64 8 5 8 C5.33 7.01 5.66 6.02 6 5 C6 5.99 6 6.98 6 8 C6.763125 8.2475 7.52625 8.495 8.3125 8.75 C11.40974934 10.19058109 12.47511304 10.95022608 14 14 C14.37125564 18.67782105 14.63008928 22.93531656 12 27 C11.030625 27.20625 10.06125 27.4125 9.0625 27.625 C5.84807024 28.63806815 5.84807024 28.63806815 5.15234375 31.17578125 C4.70014804 33.09016668 4.27067635 35.01000758 3.859375 36.93359375 C2.9337554 40.23637278 1.56721022 42.60330023 -0.25 45.5 C-3.18598953 50.52284484 -3.34754543 53.84200427 -2.234375 59.4921875 C-1.94311568 62.6086622 -2.50642936 64.2648415 -4 67 C-6.93709723 69.53031616 -10.26038466 71.0188406 -14.1640625 70.9765625 C-17.70707787 70.27326731 -19.72782199 69.23135131 -22.5 66.875 C-24.42628939 63.18294533 -24.93626233 60.02828836 -24 56 C-22.23851565 52.9840268 -20.17259122 50.58629561 -17 49 C-15.45976004 48.93049459 -13.91665012 48.91547643 -12.375 48.9375 C-11.14910156 48.95103516 -11.14910156 48.95103516 -9.8984375 48.96484375 C-9.27195312 48.97644531 -8.64546875 48.98804688 -8 49 C-6.84120336 46.81855776 -5.69812622 44.63096983 -4.5625 42.4375 C-4.23701172 41.82841797 -3.91152344 41.21933594 -3.57617188 40.59179688 C-1.39628779 36.34439386 -0.43480631 32.75837333 0 28 C-0.78375 27.773125 -1.5675 27.54625 -2.375 27.3125 C-5 26 -5 26 -6.3125 23.75 C-7.13603707 20.4558517 -7.53150923 18.38837131 -7 15 C-5.57280784 12.9124652 -4.00410029 10.99118365 -2.40234375 9.03515625 C-0.32029813 6.01358029 -0.15082521 3.61980512 0 0 Z " fill="#7BD2D7" transform="translate(126,88)"/>
<path d="M0 0 C3 1 3 1 4.1875 2.6875 C5.19313465 5.54969093 5.13689641 7.98827908 5 11 C5.66 11 6.32 11 7 11 C7.17015625 11.71027344 7.3403125 12.42054687 7.515625 13.15234375 C7.75796875 14.07144531 8.0003125 14.99054688 8.25 15.9375 C8.48203125 16.85402344 8.7140625 17.77054688 8.953125 18.71484375 C9.29859375 19.46894531 9.6440625 20.22304687 10 21 C11.95910861 21.75022327 11.95910861 21.75022327 14 22 C16 24 16 24 16.5 26.0625 C16.665 26.701875 16.83 27.34125 17 28 C17.66 28.33 18.32 28.66 19 29 C19.21020556 22.54201817 18.950081 17.2158832 17 11 C16.875 7.5625 16.875 7.5625 17 5 C21.9472159 12.42082385 21.27303891 20.24007251 21.1875 28.875 C21.18685547 30.10347656 21.18621094 31.33195312 21.18554688 32.59765625 C21.15397056 39.14447889 20.87590871 45.5112683 20 52 C20.99 52 21.98 52 23 52 C23.33 51.34 23.66 50.68 24 50 C24.433125 50.7425 24.86625 51.485 25.3125 52.25 C26.84944048 54.95821611 26.84944048 54.95821611 28.6875 56.8125 C30.66864824 60.11441373 30.6520112 63.30763225 30 67 C27.01470588 72.66176471 27.01470588 72.66176471 23 74 C14.99070488 74.43687064 14.99070488 74.43687064 12 72 C10.75 68.875 10.75 68.875 10 66 C9.34 66 8.68 66 8 66 C7.67 63.03 7.34 60.06 7 57 C3.535 57.495 3.535 57.495 0 58 C0.8487545 55.38451183 1.72681146 52.78599073 2.625 50.1875 C2.86089844 49.44951172 3.09679687 48.71152344 3.33984375 47.95117188 C4.75913178 43.92985579 5.37689572 42.37633031 9.15625 40.09375 C10.56390625 39.55234375 10.56390625 39.55234375 12 39 C13.03557297 37.28619384 13.03557297 37.28619384 13 35 C13.12375 33.700625 13.2475 32.40125 13.375 31.0625 C13.34843959 27.50340559 13.03668642 27.04537531 10.625 24.0625 C8.20460719 22.01857687 8.20460719 22.01857687 6 21 C5.24430626 18.41411048 4.59123948 15.87362521 4 13.25 C2.94696509 8.67587959 1.90263082 4.31489489 0 0 Z " fill="#FBFBF8" transform="translate(126,75)"/>
<path d="M0 0 C0.6909375 0.5259375 1.381875 1.051875 2.09375 1.59375 C3.03734375 2.28984375 3.03734375 2.28984375 4 3 C14.15757594 11.0191389 20.41921913 23.94640843 22.09375 36.59375 C22.33627388 40.95265301 22.32915456 45.2918928 22.28125 49.65625 C22.2802832 51.33557617 22.2802832 51.33557617 22.27929688 53.04882812 C22.19301089 69.39522822 22.19301089 69.39522822 20.09375 73.59375 C19.10375 73.59375 18.11375 73.59375 17.09375 73.59375 C17.11993408 72.5514624 17.14611816 71.5091748 17.1730957 70.43530273 C17.2649744 66.49363478 17.32148783 62.55205687 17.3684082 58.60961914 C17.39324431 56.91739891 17.42712591 55.22528231 17.47094727 53.53344727 C17.89210162 36.83096092 15.21752232 21.58460467 3.40625 8.76171875 C-5.1447933 0.94305647 -14.99888461 -2.92876463 -26.5234375 -2.71875 C-35.02621571 -1.93327395 -42.82780685 1.55675078 -48.90625 7.59375 C-53.7113341 13.83300461 -56.18862719 19.58744122 -56.09375 27.53125 C-56.08730469 28.71589844 -56.08085938 29.90054688 -56.07421875 31.12109375 C-55.91761318 34.35882287 -55.5132684 37.41297361 -54.90625 40.59375 C-56.88625 41.08875 -56.88625 41.08875 -58.90625 41.59375 C-62.673029 30.8539456 -63.10826567 23.88624966 -58.30859375 13.3828125 C-53.85984892 4.53489103 -47.44433079 -1.57182191 -38.203125 -5.578125 C-24.79822104 -9.73286132 -11.38732096 -8.17962491 0 0 Z " fill="#2A62C8" transform="translate(128.90625,53.40625)"/>
<path d="M0 0 C2.75569447 2.18159145 4.43588747 3.87177494 6 7 C6.3030303 16.39393939 6.3030303 16.39393939 5 19 C1.13664804 20.95967128 -2.0179087 21.21938662 -6.3125 21.125 C-7.38113281 21.10695312 -8.44976562 21.08890625 -9.55078125 21.0703125 C-10.35902344 21.04710937 -11.16726562 21.02390625 -12 21 C-15.44792183 16.08932346 -16.60930319 12.99972652 -15.62109375 7.01953125 C-14.74679306 4.17667933 -13.38124372 2.73181362 -11 1 C-7.52736727 -0.73631636 -3.78806987 -0.60190402 0 0 Z " fill="#75CDD8" transform="translate(59,121)"/>
<path d="M0 0 C0.33 1.32 0.66 2.64 1 4 C1.99 4 2.98 4 4 4 C4.33 3.34 4.66 2.68 5 2 C5.433125 2.7425 5.86625 3.485 6.3125 4.25 C7.84944048 6.95821611 7.84944048 6.95821611 9.6875 8.8125 C11.66864824 12.11441373 11.6520112 15.30763225 11 19 C8.01470588 24.66176471 8.01470588 24.66176471 4 26 C-3.9057187 26.43122102 -3.9057187 26.43122102 -7 24 C-10.19369614 19.2094558 -10.70863401 15.58049284 -10 10 C-7.8125 7 -7.8125 7 -5 5 C-2.1875 4.6875 -2.1875 4.6875 0 5 C0 3.35 0 1.7 0 0 Z " fill="#7ED3D6" transform="translate(145,123)"/>
<path d="M0 0 C3.62895695 0.76766397 5.41174716 1.33331344 7.875 4.125 C9.37819949 7.9665098 9.20895809 10.89049086 9 15 C8.34 15 7.68 15 7 15 C6.7525 15.61875 6.505 16.2375 6.25 16.875 C4.69447068 19.51939985 3.92378529 20.07669938 1 21 C-5.87761194 21.7641791 -5.87761194 21.7641791 -9.9375 19 C-12.4845018 15.29527011 -13.31552158 12.47865361 -13 8 C-10.38971692 0.95223568 -7.34390834 -0.49789209 0 0 Z " fill="#7BCFD3" transform="translate(79,94)"/>
<path d="M0 0 C4.54054054 2.08108108 4.54054054 2.08108108 6 5 C6.34717992 10.29449372 6.52421718 13.74663444 3 18 C-0.10008112 20.73536569 -2.5350604 21.25726403 -6.5625 21.125 C-9.15433397 20.72758546 -10.5544452 20.42185508 -12.46875 18.609375 C-15.04872807 14.51826692 -15.55764688 10.83293964 -15 6 C-14.34 5.01 -13.68 4.02 -13 3 C-12.34 3 -11.68 3 -11 3 C-11 2.34 -11 1.68 -11 1 C-7.55611807 -0.72194097 -3.77311176 -0.37796284 0 0 Z " fill="#7BCED1" transform="translate(150,35)"/>
<path d="M0 0 C1.32 0.33 2.64 0.66 4 1 C7.66168122 11.06962335 6.77280324 22.06450392 3 32 C-1.35101122 40.3482817 -7.3154383 45.99246668 -16.21875 49.13671875 C-20.57213023 50.13062064 -24.55373373 50.33115045 -29 50.3125 C-29.76828125 50.32861328 -30.5365625 50.34472656 -31.328125 50.36132812 C-36.62311489 50.36583067 -40.26945498 49.38414436 -45 47 C-45 45.68 -45 44.36 -45 43 C-44.44054687 43.144375 -43.88109375 43.28875 -43.3046875 43.4375 C-30.55154865 46.38999517 -19.50953012 46.10571807 -8.1875 39.3125 C-0.78364292 31.48556538 1.35046537 21.99783883 1.13671875 11.5078125 C0.92607475 7.64399975 0.49517308 3.83759138 0 0 Z " fill="#2863CA" transform="translate(109,93)"/>
<path d="M0 0 C0.103125 0.639375 0.20625 1.27875 0.3125 1.9375 C0.539375 2.618125 0.76625 3.29875 1 4 C1.99 4.33 2.98 4.66 4 5 C4.33 5.66 4.66 6.32 5 7 C5.66 7 6.32 7 7 7 C7 8.98 7 10.96 7 13 C7.99 13 8.98 13 10 13 C14.78535097 31.42929807 14.78535097 31.42929807 12 37 C10.515 36.505 10.515 36.505 9 36 C8.690625 35.195625 8.38125 34.39125 8.0625 33.5625 C6.79010114 30.49377334 5.93546554 30.28426617 3 29 C0.70366176 25.55549263 0.45983515 23.06187717 0 19 C-0.66 19 -1.32 19 -2 19 C-2.309375 17.906875 -2.61875 16.81375 -2.9375 15.6875 C-3.58337897 13.44592006 -4.2623117 11.2130649 -5 9 C-5.66 8.67 -6.32 8.34 -7 8 C-6.33333333 6.66666667 -5.66666667 5.33333333 -5 4 C-4.34 4 -3.68 4 -3 4 C-2.67 3.01 -2.34 2.02 -2 1 C-1.34 0.67 -0.68 0.34 0 0 Z " fill="#FAFCF8" transform="translate(133,67)"/>
<path d="M0 0 C2.38564077 0.57584432 4.66682784 1.22227595 7 2 C7.12117187 2.67546875 7.24234375 3.3509375 7.3671875 4.046875 C7.53476563 4.93890625 7.70234375 5.8309375 7.875 6.75 C8.11863281 8.07257812 8.11863281 8.07257812 8.3671875 9.421875 C8.96796264 11.86947744 9.77997117 13.80599857 11 16 C17.65545792 16.54330269 21.45834744 15.77304004 27 12 C26.80078125 13.859375 26.80078125 13.859375 26 16 C23.85546875 17.265625 23.85546875 17.265625 21.1875 18.25 C20.31480469 18.58515625 19.44210938 18.9203125 18.54296875 19.265625 C16 20 16 20 12 20 C12 20.66 12 21.32 12 22 C12.66 22 13.32 22 14 22 C14.061875 22.94875 14.12375 23.8975 14.1875 24.875 C14.455625 25.90625 14.72375 26.9375 15 28 C17.46255685 29.45291273 17.46255685 29.45291273 20 30 C20 31.32 20 32.64 20 34 C20.66 34 21.32 34 22 34 C23.69908237 43.18213231 24.25758151 51.98590041 24.125 61.3125 C24.11597656 62.54162109 24.10695312 63.77074219 24.09765625 65.03710938 C24.07440453 68.02495544 24.04173123 71.01236484 24 74 C23.67 74 23.34 74 23 74 C22.98541748 73.36610352 22.97083496 72.73220703 22.95581055 72.07910156 C22.46838043 53.11238616 21.49822946 34.16872425 7 20 C3.40930134 17.21975799 -0.27857341 14.60111635 -4 12 C-5.33787586 11.00608554 -6.67306301 10.00847211 -8 9 C-5.02148438 9.43945312 -5.02148438 9.43945312 -2.04296875 9.87890625 C0.2025342 10.13904799 0.2025342 10.13904799 3 9 C3.25030977 6.58380177 3.25030977 6.58380177 3 4 C2.01 3.34 1.02 2.68 0 2 C0 1.34 0 0.68 0 0 Z " fill="#E9F7FA" transform="translate(128,39)"/>
<path d="M0 0 C0.66 0 1.32 0 2 0 C4.04494172 4.08988344 4.05725219 6.57876359 3 11 C1.87016118 14.38951646 1.44465812 14.69416637 -1.5625 16.3125 C-4.82642628 17.85918939 -6.85244687 18.20573008 -10.375 17.375 C-14 16 -14 16 -16 14 C-15.96712417 11.27130593 -15.43602229 8.7033382 -15 6 C-14.01 7.485 -14.01 7.485 -13 9 C-13.061875 8.236875 -13.12375 7.47375 -13.1875 6.6875 C-13 4 -13 4 -11.875 2.125 C-10 1 -10 1 -7.125 1.1875 C-4.28331299 1.92633862 -1.68335436 2.81616719 1 4 C0.67 2.68 0.34 1.36 0 0 Z " fill="#81D5D8" transform="translate(120,141)"/>
<path d="M0 0 C1.32 0 2.64 0 4 0 C3.23018636 8.85285692 -0.42366003 16.48172719 -5 24 C-5.66 24 -6.32 24 -7 24 C-6.67 25.32 -6.34 26.64 -6 28 C-6.70125 27.855625 -7.4025 27.71125 -8.125 27.5625 C-9.07375 27.376875 -10.0225 27.19125 -11 27 C-12.5778125 26.6596875 -12.5778125 26.6596875 -14.1875 26.3125 C-15.115625 26.209375 -16.04375 26.10625 -17 26 C-19.41121859 27.95633975 -19.41121859 27.95633975 -19.125 31.625 C-19.063125 33.295625 -19.063125 33.295625 -19 35 C-21 35 -23 35 -25 35 C-25.66964286 27.23214286 -25.66964286 27.23214286 -22.625 23.5625 C-19.02289513 20.04615953 -19.02289513 20.04615953 -15.8359375 19.90234375 C-14.61777344 19.91974609 -14.61777344 19.91974609 -13.375 19.9375 C-12.14910156 19.95103516 -12.14910156 19.95103516 -10.8984375 19.96484375 C-10.27195312 19.97644531 -9.64546875 19.98804688 -9 20 C-7.86988348 17.7941576 -6.74584212 15.58554973 -5.625 13.375 C-5.30789062 12.75753906 -4.99078125 12.14007813 -4.6640625 11.50390625 C-2.76407197 7.74350833 -1.23211496 4.04482184 0 0 Z " fill="#86D0D6" transform="translate(127,117)"/>
<path d="M0 0 C0.33 0 0.66 0 1 0 C1.03867187 1.81371094 1.03867187 1.81371094 1.078125 3.6640625 C1.56028462 19.24164984 3.37243983 33.52403861 14.671875 45.16796875 C15.32929687 46.07482422 15.32929687 46.07482422 16 47 C15.67 47.99 15.34 48.98 15 50 C15.7734375 50.5259375 15.7734375 50.5259375 16.5625 51.0625 C18 53 18 53 17.6875 56.6875 C17.460625 57.780625 17.23375 58.87375 17 60 C19.97 60.33 22.94 60.66 26 61 C25.34 61.66 24.68 62.32 24 63 C17.91304348 62.45652174 17.91304348 62.45652174 15 61 C14.5078125 58.85546875 14.5078125 58.85546875 14.125 56.1875 C13.5444245 53.18140909 13.04159081 51.07594844 11.5625 48.375 C7.29517584 46.0852163 2.73798139 46.7059184 -2 47 C-2.33 46.34 -2.66 45.68 -3 45 C-0.36 44.67 2.28 44.34 5 44 C3.68 43.67 2.36 43.34 1 43 C1 41.02 1 39.04 1 37 C0.01 37 -0.98 37 -2 37 C-1.84660156 35.989375 -1.69320312 34.97875 -1.53515625 33.9375 C-0.70826593 27.32237742 -0.63636938 20.65723409 -0.4375 14 C-0.39421865 12.63931211 -0.35060161 11.27863485 -0.30664062 9.91796875 C-0.20113317 6.61206843 -0.09901744 3.30610001 0 0 Z " fill="#EBF8F5" transform="translate(50,75)"/>
<path d="M0 0 C0.66 0 1.32 0 2 0 C2.33 1.32 2.66 2.64 3 4 C4.32 4.33 5.64 4.66 7 5 C7 5.99 7 6.98 7 8 C6.34 8 5.68 8 5 8 C5 8.99 5 9.98 5 11 C4.34 11 3.68 11 3 11 C2.67 13.31 2.34 15.62 2 18 C1.34 18 0.68 18 0 18 C-0.33 19.65 -0.66 21.3 -1 23 C-2.98 22.34 -4.96 21.68 -7 21 C-7.33 23.64 -7.66 26.28 -8 29 C-8.99 29 -9.98 29 -11 29 C-10.27637073 22.60794144 -9.19656638 16.31972924 -8 10 C-7.01 9.67 -6.02 9.34 -5 9 C-3.06181958 6.13149298 -1.50053894 3.11650396 0 0 Z " fill="#F9FAF6" transform="translate(68,51)"/>
<path d="M0 0 C5.5952381 0.5952381 5.5952381 0.5952381 8 3 C8.54843941 11.36370106 8.26485619 21.59922014 4 29 C3.01 29 2.02 29 1 29 C1.33 26.36 1.66 23.72 2 21 C1.34 21 0.68 21 0 21 C-1.2398524 6.27675277 -1.2398524 6.27675277 -1 1 C-0.67 0.67 -0.34 0.34 0 0 Z " fill="#F9FBF9" transform="translate(101,95)"/>
<path d="M0 0 C0.66 0.5775 1.32 1.155 2 1.75 C2 2.74 2 3.73 2 4.75 C5.3 4.75 8.6 4.75 12 4.75 C12 5.41 12 6.07 12 6.75 C13.80597656 6.73259766 13.80597656 6.73259766 15.6484375 6.71484375 C17.22395679 6.70546566 18.79947775 6.69636548 20.375 6.6875 C21.1690625 6.67912109 21.963125 6.67074219 22.78125 6.66210938 C28.7734375 6.63671875 28.7734375 6.63671875 31 7.75 C30.67 8.41 30.34 9.07 30 9.75 C29.01 9.42 28.02 9.09 27 8.75 C25.10529184 8.6814505 23.2083166 8.66519628 21.3125 8.6875 C20.31863281 8.69652344 19.32476562 8.70554687 18.30078125 8.71484375 C17.54152344 8.72644531 16.78226562 8.73804688 16 8.75 C16 9.41 16 10.07 16 10.75 C15.44054687 10.57984375 14.88109375 10.4096875 14.3046875 10.234375 C12.57196193 9.7106573 10.83737074 9.19309557 9.1015625 8.6796875 C6.96494331 8.03923993 4.83494849 7.37640866 2.7109375 6.6953125 C-11.62692969 2.26125425 -26.87992638 0.77328711 -40.94140625 7.06640625 C-42.45406076 7.91864017 -43.94567758 8.81097433 -45.3984375 9.76171875 C-47 10.75 -47 10.75 -49 10.75 C-49 10.09 -49 9.43 -49 8.75 C-46.62109375 7.09375 -46.62109375 7.09375 -43.4375 5.25 C-42.40496094 4.6415625 -41.37242188 4.033125 -40.30859375 3.40625 C-33.61935335 0.05768101 -27.87814232 -0.50425234 -20.5625 -0.3125 C-15.83920146 -0.21072102 -11.27404728 -0.14005737 -6.58984375 -0.82421875 C-3 -1.25 -3 -1.25 0 0 Z " fill="#DFF3FD" transform="translate(123,27.25)"/>
<path d="M0 0 C3 1 3 1 4.1875 2.6875 C5.19313465 5.54969093 5.13689641 7.98827908 5 11 C5.66 11 6.32 11 7 11 C7.17015625 11.71027344 7.3403125 12.42054687 7.515625 13.15234375 C7.75796875 14.07144531 8.0003125 14.99054688 8.25 15.9375 C8.48203125 16.85402344 8.7140625 17.77054688 8.953125 18.71484375 C9.29859375 19.46894531 9.6440625 20.22304687 10 21 C11.95910861 21.75022327 11.95910861 21.75022327 14 22 C16 24 16 24 16.265625 27.08203125 C16.26046875 28.31308594 16.2553125 29.54414062 16.25 30.8125 C16.25515625 32.03582031 16.2603125 33.25914063 16.265625 34.51953125 C15.99863382 38.017901 15.58557584 41.41442416 13 44 C11.00041636 44.04080783 8.99954746 44.04254356 7 44 C7.12375 45.546875 7.12375 45.546875 7.25 47.125 C6.95947619 51.62811903 5.90441261 53.59768808 3 57 C2.01 57 1.02 57 0 57 C0.84953757 54.55080125 1.72740218 52.1190523 2.625 49.6875 C2.86089844 48.99720703 3.09679687 48.30691406 3.33984375 47.59570312 C4.79804751 43.72585468 5.46661257 42.31686382 9.15625 40.125 C10.0946875 39.75375 11.033125 39.3825 12 39 C13.03557297 37.28619384 13.03557297 37.28619384 13 35 C13.12375 33.700625 13.2475 32.40125 13.375 31.0625 C13.34843959 27.50340559 13.03668642 27.04537531 10.625 24.0625 C8.20460719 22.01857687 8.20460719 22.01857687 6 21 C5.24430626 18.41411048 4.59123948 15.87362521 4 13.25 C2.94696509 8.67587959 1.90263082 4.31489489 0 0 Z " fill="#DDF7FC" transform="translate(126,75)"/>
<path d="M0 0 C3.0625 2.5 3.0625 2.5 5 5 C4.67 5.66 4.34 6.32 4 7 C3.34 6.67 2.68 6.34 2 6 C2 5.34 2 4.68 2 4 C0.68 4 -0.64 4 -2 4 C-2.33 3.67 -2.66 3.34 -3 3 C-3 3.33 -3 3.66 -3 4 C-4.65 4 -6.3 4 -8 4 C-8 4.99 -8 5.98 -8 7 C-8.66 7 -9.32 7 -10 7 C-10.0615942 10.41136476 -10.0615942 10.41136476 -9 14 C-6.71858658 15.59040839 -4.70125887 16.16506544 -2 17 C-2.33 17.99 -2.66 18.98 -3 20 C-5.64 20 -8.28 20 -11 20 C-14.50145555 15.01307846 -15.42373326 12.05993734 -14.65234375 6.015625 C-13.87906129 3.62632112 -12.91963186 2.58932114 -11 1 C-7.5321507 -0.73392465 -3.78231256 -0.61299548 0 0 Z " fill="#73D4D7" transform="translate(59,121)"/>
<path d="M0 0 C0.99 0 1.98 0 3 0 C5.07151925 3.10727887 5.58582689 5.03877116 5.53125 8.75 C4.63947954 12.52691018 2.10988347 14.98822528 -0.375 17.87890625 C-2.3925636 20.51240874 -2.91542474 22.70156489 -3 26 C-3.66 26 -4.32 26 -5 26 C-5.19511725 23.25034772 -5.38136433 20.50057868 -5.5625 17.75 C-5.61857422 16.97269531 -5.67464844 16.19539063 -5.73242188 15.39453125 C-5.80493164 14.26337891 -5.80493164 14.26337891 -5.87890625 13.109375 C-5.9260376 12.41811523 -5.97316895 11.72685547 -6.02172852 11.01464844 C-5.99853136 8.86382928 -5.5995764 7.05915129 -5 5 C-4.01 5 -3.02 5 -2 5 C-1.34 3.35 -0.68 1.7 0 0 Z " fill="#F3FBF8" transform="translate(121,84)"/>
<path d="M0 0 C10.51355366 -0.54657618 21.01161209 3.21161272 30.6171875 7.2421875 C30.2871875 8.5621875 29.9571875 9.8821875 29.6171875 11.2421875 C25.04319041 10.45730042 20.71561241 9.08692628 16.3046875 7.6796875 C15.56412109 7.44572266 14.82355469 7.21175781 14.06054688 6.97070312 C12.24535345 6.39686778 10.43116744 5.81984739 8.6171875 5.2421875 C8.6171875 4.5821875 8.6171875 3.9221875 8.6171875 3.2421875 C2.3471875 3.2421875 -3.9228125 3.2421875 -10.3828125 3.2421875 C-10.3828125 2.5821875 -10.3828125 1.9221875 -10.3828125 1.2421875 C-6.92606125 0.72041373 -3.47684458 0.3533842 0 0 Z " fill="#2C62D0" transform="translate(106.3828125,29.7578125)"/>
<path d="M0 0 C2.6875 1.1875 2.6875 1.1875 4.6875 4.1875 C4.94510279 6.88202521 4.77650053 9.47298375 4.6875 12.1875 C4.0275 12.1875 3.3675 12.1875 2.6875 12.1875 C2.6875 12.8475 2.6875 13.5075 2.6875 14.1875 C1.6975 14.1875 0.7075 14.1875 -0.3125 14.1875 C-0.3125 11.2175 -0.3125 8.2475 -0.3125 5.1875 C-1.59125 5.125625 -2.87 5.06375 -4.1875 5 C-5.26644531 4.94779297 -5.26644531 4.94779297 -6.3671875 4.89453125 C-7.00914063 4.99121094 -7.65109375 5.08789062 -8.3125 5.1875 C-10.44710411 7.96775473 -10.44710411 7.96775473 -10.8125 10.8125 C-11.06 11.988125 -11.06 11.988125 -11.3125 13.1875 C-12.3025 13.6825 -12.3025 13.6825 -13.3125 14.1875 C-14.87404748 4.50168523 -14.87404748 4.50168523 -12.3125 0.1875 C-8.37297768 -1.78226116 -4.15062788 -1.01807854 0 0 Z " fill="#73D3D9" transform="translate(82.3125,94.8125)"/>
<path d="M0 0 C2 2 2 2 2 5 C2.66 5 3.32 5 4 5 C4.99197681 8.30839535 5.12896758 11.3153005 5.1328125 14.76171875 C5.13410156 15.88126953 5.13539063 17.00082031 5.13671875 18.15429688 C5.13285156 19.32025391 5.12898437 20.48621094 5.125 21.6875 C5.12886719 22.83412109 5.13273438 23.98074219 5.13671875 25.16210938 C5.11771192 41.76457616 5.11771192 41.76457616 3 46 C2.01 46 1.02 46 0 46 C-0.02749766 44.62511713 -0.0466164 43.25006609 -0.0625 41.875 C-0.07410156 41.10929687 -0.08570313 40.34359375 -0.09765625 39.5546875 C0 37 0 37 0.49609375 34.40625 C1.22525192 29.47736688 1.14403782 24.60021604 1.125 19.625 C1.12886719 18.62210938 1.13273438 17.61921875 1.13671875 16.5859375 C1.12935817 10.96245175 0.83625703 5.56177297 0 0 Z " fill="#1E5BD7" transform="translate(146,81)"/>
<path d="M0 0 C0.66 0.33 1.32 0.66 2 1 C2.64563816 5.30425442 1.85904258 7.71255428 -0.5625 11.1875 C-3.51695529 14.77260468 -6.34969133 17.16141975 -11 18 C-15.01466606 18.21660055 -18.98466052 18.17801998 -23 18 C-23.66 16.68 -24.32 15.36 -25 14 C-22.07579516 13.13993975 -19.65917673 12.96530649 -16.625 13.125 C-12.30706844 13.14623573 -9.61456728 12.54662695 -6 10 C-3.27687373 6.87836745 -1.31283399 3.93850196 0 0 Z " fill="#3367CA" transform="translate(95,108)"/>
<path d="M0 0 C0.66 0.33 1.32 0.66 2 1 C2.625 3.5625 2.625 3.5625 3 6 C3.66 6 4.32 6 5 6 C5 6.66 5 7.32 5 8 C5.66 8 6.32 8 7 8 C7.061875 8.94875 7.12375 9.8975 7.1875 10.875 C7.455625 11.90625 7.72375 12.9375 8 14 C10.46255685 15.45291273 10.46255685 15.45291273 13 16 C13 17.32 13 18.64 13 20 C13.66 20 14.32 20 15 20 C16.69908237 29.18213231 17.25758151 37.98590041 17.125 47.3125 C17.11597656 48.54162109 17.10695312 49.77074219 17.09765625 51.03710938 C17.07440453 54.02495544 17.04173123 57.01236484 17 60 C16.67 60 16.34 60 16 60 C15.98541748 59.36610352 15.97083496 58.73220703 15.95581055 58.07910156 C15.41856307 37.17391009 13.39297122 19.85479781 -1.8125 4.125 C-2.204375 3.75375 -2.59625 3.3825 -3 3 C-1.68 3.33 -0.36 3.66 1 4 C0.67 2.68 0.34 1.36 0 0 Z " fill="#D8ECFA" transform="translate(135,53)"/>
<path d="M0 0 C0.33 0 0.66 0 1 0 C1.11044961 6.73742646 0.70132913 13.29980211 0 20 C0.66 20 1.32 20 2 20 C2.33 20.66 2.66 21.32 3 22 C5.31 22 7.62 22 10 22 C9.67 21.34 9.34 20.68 9 20 C8.90293287 17.85595831 8.87021464 15.70873249 8.875 13.5625 C8.87242188 12.40878906 8.86984375 11.25507812 8.8671875 10.06640625 C9 7 9 7 10 4 C10.66 4.33 11.32 4.66 12 5 C11.67 5.99 11.34 6.98 11 8 C10.42090559 13.84662625 10.98037693 17.84147726 14 23 C14 23.66 14 24.32 14 25 C13.34 25 12.68 25 12 25 C11.67 25.66 11.34 26.32 11 27 C9.02 27 7.04 27 5 27 C5 26.34 5 25.68 5 25 C3.35 25 1.7 25 0 25 C-1.7301704 20.5029301 -2.27093735 16.74785648 -2.25 11.9375 C-2.25515625 10.75027344 -2.2603125 9.56304687 -2.265625 8.33984375 C-2.00995097 5.12511887 -1.37732596 2.8912914 0 0 Z " fill="#DAF4FD" transform="translate(74,69)"/>
<path d="M0 0 C0.33 0 0.66 0 1 0 C1.66 5.61 2.32 11.22 3 17 C0.69 17.33 -1.62 17.66 -4 18 C-4.33 17.01 -4.66 16.02 -5 15 C-5.66 15 -6.32 15 -7 15 C-7 11.37 -7 7.74 -7 4 C-5.68 3.34 -4.36 2.68 -3 2 C-3 3.32 -3 4.64 -3 6 C-2.34 6 -1.68 6 -1 6 C-0.67 4.02 -0.34 2.04 0 0 Z " fill="#FAF9F9" transform="translate(81,74)"/>
<path d="M0 0 C1 3 1 3 0 6 C0.66 6 1.32 6 2 6 C1.83757812 6.51820312 1.67515625 7.03640625 1.5078125 7.5703125 C0.85194887 10.7083677 0.86810786 13.67015382 0.875 16.875 C0.87242188 18.06867188 0.86984375 19.26234375 0.8671875 20.4921875 C0.99066604 23.75347351 1.38336743 26.79938334 2 30 C0.68 30.33 -0.64 30.66 -2 31 C-6.28135211 18.79304963 -5.56384014 11.74367686 0 0 Z " fill="#2B66CC" transform="translate(72,64)"/>
<path d="M0 0 C2.30707593 2.81975947 4.53895477 5.68324185 6.6875 8.625 C7.10386719 9.19476563 7.52023438 9.76453125 7.94921875 10.3515625 C9.85031054 13.33394441 10.15845836 15.99316186 10.1875 19.4375 C10.20167969 20.19933594 10.21585938 20.96117188 10.23046875 21.74609375 C9.97612666 24.23347315 9.24017196 25.84808106 8 28 C7.67 26.35 7.34 24.7 7 23 C6.67 24.32 6.34 25.64 6 27 C5.34 27 4.68 27 4 27 C4.06960937 26.154375 4.13921875 25.30875 4.2109375 24.4375 C4.56454022 17.02868118 4.21456095 13.23757759 -0.796875 7.72265625 C-1.39242187 6.86994141 -1.39242187 6.86994141 -2 6 C-1.375 2.5 -1.375 2.5 0 0 Z " fill="#3A6ED0" transform="translate(89,86)"/>
<path d="M0 0 C0.33 0 0.66 0 1 0 C1.33 2.97 1.66 5.94 2 9 C1.34 9 0.68 9 0 9 C0 15.93 0 22.86 0 30 C0.66 30 1.32 30 2 30 C2 28.02 2 26.04 2 24 C2.33 24 2.66 24 3 24 C3.66 27.3 4.32 30.6 5 34 C4.34 34 3.68 34 3 34 C3 33.34 3 32.68 3 32 C2.34 32 1.68 32 1 32 C1 35.96 1 39.92 1 44 C-0.32 44.66 -1.64 45.32 -3 46 C-3.33 46.99 -3.66 47.98 -4 49 C-5.485 49.495 -5.485 49.495 -7 50 C-6.55527344 48.93458984 -6.55527344 48.93458984 -6.1015625 47.84765625 C-1.61639041 36.25300925 -1.17452819 25.25235925 -2.9765625 13.05859375 C-3 11 -3 11 -1 8 C-0.54860541 5.9507906 -0.54860541 5.9507906 -0.375 3.8125 C-0.189375 1.9253125 -0.189375 1.9253125 0 0 Z " fill="#D7F2FB" transform="translate(116,80)"/>
<path d="M0 0 C1.22589844 0.01353516 1.22589844 0.01353516 2.4765625 0.02734375 C3.41628906 0.04474609 3.41628906 0.04474609 4.375 0.0625 C5.035 1.3825 5.695 2.7025 6.375 4.0625 C3.04166667 4.72916667 -0.29166667 5.39583333 -3.625 6.0625 C-4.285 8.3725 -4.945 10.6825 -5.625 13.0625 C-6.285 13.0625 -6.945 13.0625 -7.625 13.0625 C-7.955 13.7225 -8.285 14.3825 -8.625 15.0625 C-7.305 15.3925 -5.985 15.7225 -4.625 16.0625 C-4.625 17.0525 -4.625 18.0425 -4.625 19.0625 C-6.95258311 18.13146676 -8.36857132 17.40867872 -9.875 15.375 C-10.91714206 12.16172866 -10.86897085 9.41709924 -10.625 6.0625 C-9.965 5.0725 -9.305 4.0825 -8.625 3.0625 C-7.965 3.0625 -7.305 3.0625 -6.625 3.0625 C-6.625 2.4025 -6.625 1.7425 -6.625 1.0625 C-4.21954362 -0.14022819 -2.67503047 -0.03821472 0 0 Z " fill="#74CFD7" transform="translate(145.625,34.9375)"/>
<path d="M0 0 C7.22916286 2.67746773 11.72299558 11.45725234 15 18 C15 18.99 15 19.98 15 21 C14.01 21 13.02 21 12 21 C12 19.02 12 17.04 12 15 C11.01 15.33 10.02 15.66 9 16 C8.67 15.01 8.34 14.02 8 13 C6.00334686 11.31461399 6.00334686 11.31461399 4 10 C2.824375 11.2375 2.824375 11.2375 1.625 12.5 C-1 15 -1 15 -3 15 C-3.66 13.68 -4.32 12.36 -5 11 C-4.01 11 -3.02 11 -2 11 C-1.67 9.68 -1.34 8.36 -1 7 C-0.34 7 0.32 7 1 7 C1.33 5.68 1.66 4.36 2 3 C1.34 3 0.68 3 0 3 C0 2.01 0 1.02 0 0 Z " fill="#EFF9F9" transform="translate(128,59)"/>
<path d="M0 0 C1.32 0 2.64 0 4 0 C3.25580879 8.55819894 0.07943809 16.10647688 -5 23 C-5.99 22.67 -6.98 22.34 -8 22 C-7.33871564 17.65205531 -5.77960948 13.86233255 -4 9.875 C-1.84532599 4.99956726 -1.84532599 4.99956726 0 0 Z " fill="#2B66C6" transform="translate(127,117)"/>
<path d="M0 0 C3.05214016 0.36335002 4.35762056 1.29705161 6.625 3.3125 C6.295 5.6225 5.965 7.9325 5.625 10.3125 C2.985 10.6425 0.345 10.9725 -2.375 11.3125 C-3.9375 9.625 -3.9375 9.625 -5.375 7.3125 C-5.08716286 3.28277999 -4.39395783 0.57815235 0 0 Z " fill="#EEF8FB" transform="translate(129.375,100.6875)"/>
<path d="M0 0 C3 0.4375 3 0.4375 4.9375 1.625 C6 3.4375 6 3.4375 5.8125 5.9375 C5 8.4375 5 8.4375 3 11.4375 C-0.125 11.625 -0.125 11.625 -3 11.4375 C-3 10.7775 -3 10.1175 -3 9.4375 C-3.66 9.4375 -4.32 9.4375 -5 9.4375 C-5.90991047 6.45961118 -6.25960381 5.00252006 -4.9375 2.125 C-3 0.4375 -3 0.4375 0 0 Z " fill="#C7F7FA" transform="translate(77,98.5625)"/>
<path d="M0 0 C0.33 1.32 0.66 2.64 1 4 C1.99 4 2.98 4 4 4 C4.33 3.34 4.66 2.68 5 2 C5.433125 2.7425 5.86625 3.485 6.3125 4.25 C7.84944048 6.95821611 7.84944048 6.95821611 9.6875 8.8125 C11.73941939 12.23236564 11.25485307 15.04977736 11 19 C10.67 19.66 10.34 20.32 10 21 C9.34 21 8.68 21 8 21 C7.96003906 20.38511719 7.92007813 19.77023438 7.87890625 19.13671875 C7.53673499 16.48805972 7.14613352 14.42104609 6 12 C3.13334276 10.30201655 0.26345988 9.58419961 -3 9 C-3 7.68 -3 6.36 -3 5 C-2.01 5 -1.02 5 0 5 C0 3.35 0 1.7 0 0 Z " fill="#76D3D4" transform="translate(145,123)"/>
<path d="M0 0 C0.66 0.33 1.32 0.66 2 1 C2.125 4.375 2.125 4.375 2 8 C0 10 0 10 -3.125 10.125 C-4.07375 10.08375 -5.0225 10.0425 -6 10 C-6 9.34 -6 8.68 -6 8 C-6.99 8 -7.98 8 -9 8 C-9.35880399 2.6179402 -9.35880399 2.6179402 -7.875 0.0625 C-5.04436087 -1.54152884 -3.06387128 -0.78226501 0 0 Z " fill="#D2F9F7" transform="translate(149,40)"/>
<path d="M0 0 C2.9375 0.8125 2.9375 0.8125 4.9375 2.8125 C5.32036803 6.54546326 5.08665785 7.58876323 2.9375 10.8125 C-0.22509871 11.21623601 -2.20262639 11.35708662 -4.9375 9.625 C-6.46909584 7.15742892 -6.49072025 5.66730169 -6.0625 2.8125 C-4.28235296 -0.15441173 -3.48497618 -0.21336589 0 0 Z " fill="#D8FDF9" transform="translate(113.0625,142.1875)"/>
<path d="M0 0 C2.36897219 0.96239495 3.50921906 1.72540668 5 3.8125 C5.3125 6.375 5.3125 6.375 5 8.8125 C3 10.8125 3 10.8125 -0.5 11.125 C-2.2325 10.9703125 -2.2325 10.9703125 -4 10.8125 C-6 7.8125 -6 7.8125 -5.8125 4.75 C-4.87702687 1.36790483 -3.77883575 -0.35426585 0 0 Z " fill="#E2FBFA" transform="translate(146,132.1875)"/>
<path d="M0 0 C0 0.66 0 1.32 0 2 C-9.57 2.33 -19.14 2.66 -29 3 C-29 2.01 -29 1.02 -29 0 C-19.40286512 -3.01086584 -9.59713488 -3.01086584 0 0 Z " fill="#2864D0" transform="translate(120,48)"/>
<path d="M0 0 C2.31 0.33 4.62 0.66 7 1 C7.66 2.65 8.32 4.3 9 6 C7.68 7.65 6.36 9.3 5 11 C-0.875 10.125 -0.875 10.125 -2 9 C-2.04092937 6.66702567 -2.04241723 4.33294775 -2 2 C-1.34 2 -0.68 2 0 2 C0 1.34 0 0.68 0 0 Z " fill="#E8FDFC" transform="translate(51,126)"/>
<path d="M0 0 C2.65254884 1.5388833 4.50437627 3.22231904 6.55859375 5.484375 C4.24859375 5.154375 1.93859375 4.824375 -0.44140625 4.484375 C-0.44140625 3.824375 -0.44140625 3.164375 -0.44140625 2.484375 C-2.75140625 2.154375 -5.06140625 1.824375 -7.44140625 1.484375 C-7.44140625 2.144375 -7.44140625 2.804375 -7.44140625 3.484375 C-8.43140625 3.154375 -9.42140625 2.824375 -10.44140625 2.484375 C-10.11140625 1.494375 -9.78140625 0.504375 -9.44140625 -0.515625 C-11.56633766 -0.54256075 -13.69136537 -0.56199128 -15.81640625 -0.578125 C-17.59144531 -0.59552734 -17.59144531 -0.59552734 -19.40234375 -0.61328125 C-22.36062146 -0.73029093 -22.36062146 -0.73029093 -24.44140625 0.484375 C-26.11795354 0.20495045 -27.78748779 -0.12390747 -29.44140625 -0.515625 C-19.58761318 -5.61241452 -9.92313663 -4.36241013 0 0 Z " fill="#ECFAFE" transform="translate(121.44140625,53.515625)"/>
<path d="M0 0 C0.94875 0.04125 1.8975 0.0825 2.875 0.125 C2.875 0.785 2.875 1.445 2.875 2.125 C3.535 2.125 4.195 2.125 4.875 2.125 C5.23380399 7.5070598 5.23380399 7.5070598 3.75 10.0625 C1.875 11.125 1.875 11.125 -1.25 10.9375 C-2.19875 10.669375 -3.1475 10.40125 -4.125 10.125 C-5.50625018 7.36249964 -5.31579306 5.17768901 -5.125 2.125 C-3.125 0.125 -3.125 0.125 0 0 Z " fill="#E4FBFC" transform="translate(106.125,77.875)"/>
<path d="M0 0 C0.33 0 0.66 0 1 0 C1 2.64 1 5.28 1 8 C1.66 8 2.32 8 3 8 C3 8.66 3 9.32 3 10 C2.01 10 1.02 10 0 10 C0.061875 11.216875 0.12375 12.43375 0.1875 13.6875 C0.18054622 17.63029325 -0.53173007 19.82651009 -3 23 C-3.5775 23.763125 -4.155 24.52625 -4.75 25.3125 C-7.94272492 27.70704369 -10.11108523 27.49495279 -14 27 C-15.71484375 25.47265625 -15.71484375 25.47265625 -17 24 C-16.40832031 23.95101562 -15.81664063 23.90203125 -15.20703125 23.8515625 C-10.80895528 23.43543133 -7.03071103 22.95034405 -3 21 C-2.34477255 16.55453373 -1.88029308 12.71824151 -2.625 8.25 C-3.06988904 4.394295 -2.36554631 3.00242416 0 0 Z " fill="#D6FAF9" transform="translate(125,134)"/>
<path d="M0 0 C0.33 0 0.66 0 1 0 C1 2.64 1 5.28 1 8 C3.97 8.495 3.97 8.495 7 9 C7 9.66 7 10.32 7 11 C6.2575 11.268125 5.515 11.53625 4.75 11.8125 C2.13363446 12.94229421 0.19812889 14.20893202 -2 16 C-2 15.34 -2 14.68 -2 14 C-2.99 14 -3.98 14 -5 14 C-4.67 16.97 -4.34 19.94 -4 23 C-4.66 23.33 -5.32 23.66 -6 24 C-7.00997978 20.03353394 -7.89521683 16.5467987 -5.765625 12.8671875 C-4.67313862 11.54059689 -3.56361764 10.22785089 -2.4375 8.9296875 C-0.2511228 5.99471375 -0.14998016 3.5995239 0 0 Z " fill="#84D5DE" transform="translate(126,88)"/>
<path d="M0 0 C0.7528125 -0.00257812 1.505625 -0.00515625 2.28125 -0.0078125 C4.473535 0.12341583 6.39319137 0.52168662 8.5 1.125 C8.5 1.785 8.5 2.445 8.5 3.125 C11.5745356 2.3486068 11.5745356 2.3486068 13.5 0.125 C14.57525194 2.77728812 15.59456151 5.40868454 16.5 8.125 C17.16 8.125 17.82 8.125 18.5 8.125 C18.17 9.115 17.84 10.105 17.5 11.125 C17.5 10.465 17.5 9.805 17.5 9.125 C16.92636719 8.83882812 16.35273437 8.55265625 15.76171875 8.2578125 C14.32048666 7.53595187 12.88485271 6.80272398 11.45703125 6.0546875 C6.07140214 3.40601745 1.49429293 2.05934792 -4.5 3.125 C-7.63192174 4.23094497 -10.56640691 5.57151335 -13.5 7.125 C-13.5 6.135 -13.5 5.145 -13.5 4.125 C-12.860625 4.00125 -12.22125 3.8775 -11.5625 3.75 C-10.5415625 3.440625 -10.5415625 3.440625 -9.5 3.125 C-9.17 2.465 -8.84 1.805 -8.5 1.125 C-5.65614924 0.13963066 -2.99269218 -0.01024895 0 0 Z " fill="#DAF0FC" transform="translate(104.5,58.875)"/>
<path d="M0 0 C1.02230258 3.06690775 1.46591175 4.81626968 1 8 C-1.375 10.1875 -1.375 10.1875 -4 12 C-4.66 12.66 -5.32 13.32 -6 14 C-6 13.34 -6 12.68 -6 12 C-8.38564077 12.57584432 -10.66682784 13.22227595 -13 14 C-15.00875442 13.72428861 -17.01178687 13.39764263 -19 13 C-16.8839879 11.92488993 -14.76345219 10.89384196 -12.59765625 9.921875 C-7.01431194 7.34097624 -3.5302703 5.06005409 0 0 Z " fill="#D9EFF9" transform="translate(108,130)"/>
<path d="M0 0 C0.33 0.66 0.66 1.32 1 2 C2.32 1.67 3.64 1.34 5 1 C7.1519437 4.22791555 7.20086443 5.28400809 7 9 C5.01432292 9.22786458 3.02864583 9.45572917 1.04296875 9.68359375 C-1.19396393 9.97170735 -1.19396393 9.97170735 -4 11 C-3.67 8.69 -3.34 6.38 -3 4 C-2.01 3.67 -1.02 3.34 0 3 C0 2.01 0 1.02 0 0 Z " fill="#F5FAFC" transform="translate(112,126)"/>
<path d="M0 0 C4.98969628 7.48454442 4.27252015 15.4171463 4.1875 24.125 C4.18685547 25.38699219 4.18621094 26.64898437 4.18554688 27.94921875 C4.13702467 38.11731549 4.13702467 38.11731549 3 43 C2.67 43 2.34 43 2 43 C2.01047363 42.12786865 2.02094727 41.2557373 2.03173828 40.35717773 C2.06600512 37.09380401 2.09098829 33.830624 2.10986328 30.56713867 C2.11986557 29.15988124 2.13347178 27.7526443 2.15087891 26.34545898 C2.17538366 24.31228552 2.18654083 22.27938894 2.1953125 20.24609375 C2.20578613 19.02591553 2.21625977 17.8057373 2.22705078 16.54858398 C1.98598076 12.78089277 1.09891826 9.60045288 0 6 C-0.125 2.5625 -0.125 2.5625 0 0 Z " fill="#CDE9FD" transform="translate(143,80)"/>
<path d="M0 0 C0.99 0 1.98 0 3 0 C4.66666667 5 6.33333333 10 8 15 C7.01 15.33 6.02 15.66 5 16 C4.67 16.66 4.34 17.32 4 18 C0.28392452 11.72912263 -0.53449652 7.24539726 0 0 Z " fill="#336AD1" transform="translate(54,96)"/>
<path d="M0 0 C0.33 1.65 0.66 3.3 1 5 C-1.64 5 -4.28 5 -7 5 C-7 5.99 -7 6.98 -7 8 C-8.32 8 -9.64 8 -11 8 C-11.0825 9.11375 -11.165 10.2275 -11.25 11.375 C-12 15 -12 15 -14.0625 16.4375 C-14.701875 16.623125 -15.34125 16.80875 -16 17 C-17 14 -17 14 -16.1015625 12.16796875 C-12.49466392 7.33014447 -6.5877573 0 0 0 Z " fill="#D5EAF9" transform="translate(92,53)"/>
<path d="M0 0 C-0.60328125 0.44730469 -1.2065625 0.89460938 -1.828125 1.35546875 C-8.27696858 6.23370688 -12.61861424 11.2714433 -17 18 C-18.2380014 14.42355152 -17.74926071 11.66305234 -17 8 C-15 8 -13 8 -11 8 C-10.7834375 6.824375 -10.7834375 6.824375 -10.5625 5.625 C-10 3 -10 3 -9 1 C-5.50639525 -0.79401325 -3.71425351 -1.11665191 0 0 Z " fill="#DCEEF9" transform="translate(74,39)"/>
<path d="M0 0 C0.66 0 1.32 0 2 0 C3.69908237 9.18213231 4.25758151 17.98590041 4.125 27.3125 C4.11597656 28.54162109 4.10695312 29.77074219 4.09765625 31.03710938 C4.07440453 34.02495544 4.04173123 37.01236484 4 40 C3.67 40 3.34 40 3 40 C2.98541748 39.36610352 2.97083496 38.73220703 2.95581055 38.07910156 C2.76387203 22.47126787 2.76387203 22.47126787 -0.4765625 7.3046875 C-1.09727953 4.57167969 -0.7163705 2.68400146 0 0 Z " fill="#C4E5FB" transform="translate(148,73)"/>
<path d="M0 0 C3.58848724 6.27627847 2.4079201 13.11103255 0.6875 19.875 C-0.32259861 23.54128385 -1.5669001 26.06937547 -4 29 C-3.37686009 24.53416396 -2.69977327 20.07952687 -2 15.625 C-1.19435669 10.42439206 -0.53239066 5.23517484 0 0 Z " fill="#C7E8FC" transform="translate(109,98)"/>
<path d="M0 0 C3.96 0 7.92 0 12 0 C12 0.66 12 1.32 12 2 C13.80597656 1.98259766 13.80597656 1.98259766 15.6484375 1.96484375 C17.22395679 1.95546566 18.79947775 1.94636548 20.375 1.9375 C21.56609375 1.92493164 21.56609375 1.92493164 22.78125 1.91210938 C28.7734375 1.88671875 28.7734375 1.88671875 31 3 C30.67 3.66 30.34 4.32 30 5 C29.01 4.67 28.02 4.34 27 4 C25.10529184 3.9314505 23.2083166 3.91519628 21.3125 3.9375 C20.31863281 3.94652344 19.32476562 3.95554688 18.30078125 3.96484375 C17.54152344 3.97644531 16.78226563 3.98804688 16 4 C16 4.66 16 5.32 16 6 C10.63904723 4.41078475 5.29156027 2.81027062 0 1 C0 0.67 0 0.34 0 0 Z " fill="#CDEDF7" transform="translate(123,32)"/>
<path d="M0 0 C0.33 0 0.66 0 1 0 C1 3.96 1 7.92 1 12 C2.32 11.67 3.64 11.34 5 11 C3.8141763 14.37503669 2.72426311 16.64722731 0 19 C-0.66 18.67 -1.32 18.34 -2 18 C-1.34 16.35 -0.68 14.7 0 13 C-0.99 13.495 -0.99 13.495 -2 14 C-3.99960012 14.039992 -6.00047242 14.04346799 -8 14 C-7.195625 13.38125 -6.39125 12.7625 -5.5625 12.125 C-2.96125481 10.25835959 -2.96125481 10.25835959 -2 8 C-1.34 8 -0.68 8 0 8 C0 5.36 0 2.72 0 0 Z " fill="#E5F9FB" transform="translate(88,101)"/>
<path d="M0 0 C-3.06156654 1.77669223 -5.24036215 2.24050818 -8.765625 2.1953125 C-9.65507813 2.18886719 -10.54453125 2.18242188 -11.4609375 2.17578125 C-12.38132812 2.15902344 -13.30171875 2.14226563 -14.25 2.125 C-15.18585938 2.11597656 -16.12171875 2.10695312 -17.0859375 2.09765625 C-19.39088657 2.07413636 -21.6953116 2.04126853 -24 2 C-24 1.34 -24 0.68 -24 0 C-15.99236706 -1.20869931 -7.9547587 -1.80594522 0 0 Z " fill="#1B5FCC" transform="translate(120,31)"/>
<path d="M0 0 C0.66 0.33 1.32 0.66 2 1 C2.703125 3.1796875 2.703125 3.1796875 3.25 5.875 C3.44078125 6.75929687 3.6315625 7.64359375 3.828125 8.5546875 C4 11 4 11 2 14 C-1.47325181 15.1577506 -4.36067448 15.06866652 -8 15 C-8 14.67 -8 14.34 -8 14 C-6.02 14 -4.04 14 -2 14 C-2 13.34 -2 12.68 -2 12 C-4.475 11.01 -4.475 11.01 -7 10 C-7 9.67 -7 9.34 -7 9 C-4.69 8.34 -2.38 7.68 0 7 C0 4.69 0 2.38 0 0 Z " fill="#8CD7DD" transform="translate(150,134)"/>
<path d="M0 0 C0.33 0 0.66 0 1 0 C1 2.64 1 5.28 1 8 C0.34 8 -0.32 8 -1 8 C-1.28875 8.639375 -1.5775 9.27875 -1.875 9.9375 C-3 12 -3 12 -5 13 C-7.69565202 12.83219837 -10.32405554 12.38844355 -13 12 C-13.66 10.35 -14.32 8.7 -15 7 C-14.34 7 -13.68 7 -13 7 C-13 7.66 -13 8.32 -13 9 C-8.52116304 8.55296014 -8.52116304 8.55296014 -5 6 C-5 6.66 -5 7.32 -5 8 C-4.01 8 -3.02 8 -2 8 C-2 7.34 -2 6.68 -2 6 C-1.34 6 -0.68 6 0 6 C0 4.02 0 2.04 0 0 Z " fill="#86D8DC" transform="translate(87,101)"/>
<path d="M0 0 C0.33 0 0.66 0 1 0 C1.02931979 4.14581819 1.04690557 8.29160925 1.0625 12.4375 C1.07087891 13.60216797 1.07925781 14.76683594 1.08789062 15.96679688 C1.13511029 32.72977941 1.13511029 32.72977941 -1 37 C-1.99 37 -2.98 37 -4 37 C-4 34.03 -4 31.06 -4 28 C-3.67 28 -3.34 28 -3 28 C-2.67 29.65 -2.34 31.3 -2 33 C-0.98057785 26.0096767 -0.68400077 19.05557945 -0.4375 12 C-0.39431641 10.84371094 -0.35113281 9.68742187 -0.30664062 8.49609375 C-0.20132083 5.66416146 -0.09918913 2.83215253 0 0 Z " fill="#245FBD" transform="translate(150,90)"/>
<path d="M0 0 C0.6725697 2.53464283 1.10986078 4.87888623 1.4375 7.5 C1.92173599 10.51302396 2.45456554 12.4242759 4 15 C6.64 14.67 9.28 14.34 12 14 C12.103125 13.236875 12.20625 12.47375 12.3125 11.6875 C13.04364039 8.82940576 13.76951913 7.84257115 16 6 C16 7.32 16 8.64 16 10 C15.34 10 14.68 10 14 10 C14.66 11.65 15.32 13.3 16 15 C15 16 15 16 12.27734375 16.09765625 C11.17519531 16.08605469 10.07304688 16.07445312 8.9375 16.0625 C7.28041016 16.04896484 7.28041016 16.04896484 5.58984375 16.03515625 C4.73519531 16.02355469 3.88054688 16.01195312 3 16 C-0.62167726 10.8418536 -1.39880692 7.94885347 -0.359375 1.72265625 C-0.24078125 1.15417969 -0.1221875 0.58570312 0 0 Z " fill="#A4E0E5" transform="translate(44,126)"/>
<path d="M0 0 C1.32 0.33 2.64 0.66 4 1 C3.6875 3.375 3.6875 3.375 3 6 C0 8 0 8 -1.9375 7.6875 C-2.618125 7.460625 -3.29875 7.23375 -4 7 C-4.7425 6.814375 -5.485 6.62875 -6.25 6.4375 C-6.8275 6.293125 -7.405 6.14875 -8 6 C-7.67 5.01 -7.34 4.02 -7 3 C-4.69 3.33 -2.38 3.66 0 4 C0 2.68 0 1.36 0 0 Z " fill="#F9FAF1" transform="translate(128,42)"/>
<path d="M0 0 C-0.763125 0.45375 -1.52625 0.9075 -2.3125 1.375 C-4.23632814 2.53824492 -6.12941224 3.7529415 -8 5 C-9.32 5 -10.64 5 -12 5 C-12.33 5.99 -12.66 6.98 -13 8 C-15.31 8 -17.62 8 -20 8 C-14.77503924 3.42815933 -7.13484837 -2.21426329 0 0 Z " fill="#D7EDFB" transform="translate(94,36)"/>
<path d="M0 0 C2.54344286 2.27301934 3.87616437 4.45086481 5.25 7.5625 C5.60578125 8.34753906 5.9615625 9.13257812 6.328125 9.94140625 C7 12 7 12 6 14 C5.67 13.01 5.34 12.02 5 11 C4.01 11 3.02 11 2 11 C2 11.99 2 12.98 2 14 C1.34 14 0.68 14 0 14 C-1.25581395 5.62790698 -1.25581395 5.62790698 0 2 C0 1.34 0 0.68 0 0 Z " fill="#E0F0F9" transform="translate(119,73)"/>
<path d="M0 0 C0.33 0 0.66 0 1 0 C1 1.98 1 3.96 1 6 C2.98 6 4.96 6 7 6 C7.33 4.02 7.66 2.04 8 0 C8.99 0.33 9.98 0.66 11 1 C10.67 3.31 10.34 5.62 10 8 C7.36 8.33 4.72 8.66 2 9 C0.4375 7.3125 0.4375 7.3125 -1 5 C-0.6875 2.25 -0.6875 2.25 0 0 Z " fill="#CAF8FA" transform="translate(125,103)"/>
<path d="M0 0 C2.3125 -0.36328125 2.3125 -0.36328125 5 -0.3125 C5.886875 -0.30863281 6.77375 -0.30476563 7.6875 -0.30078125 C10 0 10 0 12 2 C12.1953125 4.1640625 12.1953125 4.1640625 12.125 6.625 C12.10695313 7.44226563 12.08890625 8.25953125 12.0703125 9.1015625 C12.03550781 10.04128906 12.03550781 10.04128906 12 11 C11.01 11.495 11.01 11.495 10 12 C8.68373308 8.38026598 8 5.90432869 8 2 C4.4780279 1.91995518 1.38018531 1.95994298 -2 3 C-1.34 2.01 -0.68 1.02 0 0 Z " fill="#6DD4D3" transform="translate(102,74)"/>
<path d="M0 0 C0.99 0.33 1.98 0.66 3 1 C5.14255793 0.61067144 5.14255793 0.61067144 7 0 C7 0.66 7 1.32 7 2 C5.3203125 3.47265625 5.3203125 3.47265625 3.125 5.0625 C2.40570313 5.58972656 1.68640625 6.11695313 0.9453125 6.66015625 C-1 8 -1 8 -3 9 C-3.99 7.68 -4.98 6.36 -6 5 C-1.60546875 0.99609375 -1.60546875 0.99609375 0 0 Z " fill="#386AD1" transform="translate(72,39)"/>
<path d="M0 0 C0.33 0 0.66 0 1 0 C1.33 3.96 1.66 7.92 2 12 C2.99 12 3.98 12 5 12 C5.33 12.99 5.66 13.98 6 15 C6.66 15.33 7.32 15.66 8 16 C8.25 22.625 8.25 22.625 6 26 C5.85304687 24.98679688 5.85304687 24.98679688 5.703125 23.953125 C5.55359375 23.06109375 5.4040625 22.1690625 5.25 21.25 C5.11078125 20.36828125 4.9715625 19.4865625 4.828125 18.578125 C4.1847003 15.85996322 4.1847003 15.85996322 1.9375 14.0625 C0 12 0 12 -0.390625 8.984375 C-0.34421875 7.91703125 -0.2978125 6.8496875 -0.25 5.75 C-0.21390625 4.67234375 -0.1778125 3.5946875 -0.140625 2.484375 C-0.09421875 1.66453125 -0.0478125 0.8446875 0 0 Z " fill="#C3EBF6" transform="translate(150,116)"/>
<path d="M0 0 C0.33 0 0.66 0 1 0 C1.66 5.28 2.32 10.56 3 16 C1.68 16.33 0.36 16.66 -1 17 C-1.66 14.69 -2.32 12.38 -3 10 C-2.67 10 -2.34 10 -2 10 C-1.34 6.7 -0.68 3.4 0 0 Z " fill="#346CC8" transform="translate(71,78)"/>
<path d="M0 0 C0.66 0 1.32 0 2 0 C2 4.95 2 9.9 2 15 C-2.91176471 10.08823529 -2.91176471 10.08823529 -3 7 C-2.16522821 4.55380166 -1.12448006 2.33891852 0 0 Z " fill="#F1FCF1" transform="translate(92,73)"/>
<path d="M0 0 C0.33 0.99 0.66 1.98 1 3 C-3.15226856 4.18956883 -5.38725993 3.78960563 -9.3125 2.0625 C-10.19550781 1.68222656 -11.07851562 1.30195312 -11.98828125 0.91015625 C-12.65214844 0.60980469 -13.31601563 0.30945312 -14 0 C-14 -0.33 -14 -0.66 -14 -1 C-8.70819739 -1.91237976 -4.99825558 -2.43817345 0 0 Z " fill="#3667D5" transform="translate(126,51)"/>
<path d="M0 0 C1.65 0 3.3 0 5 0 C5 0.99 5 1.98 5 3 C-2.77729519 6.21819111 -9.64259099 6.32098157 -18 6 C-18 5.67 -18 5.34 -18 5 C-17.19175781 4.93941406 -16.38351563 4.87882813 -15.55078125 4.81640625 C-13.94783203 4.69072266 -13.94783203 4.69072266 -12.3125 4.5625 C-11.25675781 4.48128906 -10.20101562 4.40007812 -9.11328125 4.31640625 C-6.34913703 4.03548319 -3.71054259 3.59843148 -1 3 C-0.67 2.01 -0.34 1.02 0 0 Z " fill="#D7EFFE" transform="translate(92,133)"/>
<path d="M0 0 C0.99 0 1.98 0 3 0 C3.66 0.99 4.32 1.98 5 3 C8.05429073 4.21284876 8.05429073 4.21284876 11 5 C11 5.99 11 6.98 11 8 C4.66666667 7.51282051 4.66666667 7.51282051 1.5625 5.125 C0 3 0 3 0 0 Z " fill="#74D5D7" transform="translate(96,86)"/>
<path d="M0 0 C1 2 1 2 0.37109375 4.0234375 C-0.2498725 5.58754497 -0.8748581 7.15006285 -1.50390625 8.7109375 C-2.12554325 11.57927829 -1.42752631 12.51334126 0 15 C0 15.99 0 16.98 0 18 C0.66 18 1.32 18 2 18 C2.66 19.32 3.32 20.64 4 22 C3.01 22 2.02 22 1 22 C-4 13.40138408 -4 13.40138408 -4 8.1875 C-3.02335472 5.07444319 -1.8613697 2.67066087 0 0 Z " fill="#DBF2FE" transform="translate(92,71)"/>
<path d="M0 0 C0.33 0 0.66 0 1 0 C1.04898438 1.29035156 1.09796875 2.58070312 1.1484375 3.91015625 C1.22351803 5.62762347 1.29906354 7.34507041 1.375 9.0625 C1.4059375 9.91005859 1.436875 10.75761719 1.46875 11.63085938 C1.7063204 16.75842057 2.48614458 21.10520082 4 26 C3.625 28.4375 3.625 28.4375 3 30 C2.34 29.67 1.68 29.34 1 29 C-0.16325975 22.67889041 -0.11996572 16.409638 -0.0625 10 C-0.05798828 9.03449219 -0.05347656 8.06898437 -0.04882812 7.07421875 C-0.03715417 4.71607911 -0.02078021 2.35807398 0 0 Z " fill="#B8DFFC" transform="translate(50,75)"/>
<path d="M0 0 C1.134375 0.020625 2.26875 0.04125 3.4375 0.0625 C2.0625 2.0625 2.0625 2.0625 0.4375 4.0625 C-0.2225 4.0625 -0.8825 4.0625 -1.5625 4.0625 C-1.81 4.578125 -2.0575 5.09375 -2.3125 5.625 C-3.95831616 8.83434151 -5.7601096 11.93835664 -7.5625 15.0625 C-8.6875 11.3125 -8.6875 11.3125 -7.5625 9.0625 C-6.9025 9.0625 -6.2425 9.0625 -5.5625 9.0625 C-5.5625 8.0725 -5.5625 7.0825 -5.5625 6.0625 C-4.9025 6.0625 -4.2425 6.0625 -3.5625 6.0625 C-3.2325 5.0725 -2.9025 4.0825 -2.5625 3.0625 C-3.2225 2.4025 -3.8825 1.7425 -4.5625 1.0625 C-3.5625 0.0625 -3.5625 0.0625 0 0 Z " fill="#C9E6FD" transform="translate(78.5625,52.9375)"/>
<path d="M0 0 C0.33 0 0.66 0 1 0 C0.67 5.28 0.34 10.56 0 16 C-0.99 16 -1.98 16 -3 16 C-3 12.04 -3 8.08 -3 4 C-2.34 4 -1.68 4 -1 4 C-0.67 2.68 -0.34 1.36 0 0 Z " fill="#1959C7" transform="translate(54,72)"/>
<path d="M0 0 C0 0.99 0 1.98 0 3 C-2.31 3 -4.62 3 -7 3 C-6.67 2.01 -6.34 1.02 -6 0 C-3 -1 -3 -1 0 0 Z M-7 3 C-7.33 4.65 -7.66 6.3 -8 8 C-9.32 8.33 -10.64 8.66 -12 9 C-11.625 6.5625 -11.625 6.5625 -11 4 C-9 3 -9 3 -7 3 Z " fill="#FDF6FD" transform="translate(96,58)"/>
<path d="M0 0 C0.33 0.99 0.66 1.98 1 3 C-1.82716095 3.94238698 -3.63176123 4.13465647 -6.5625 4.125 C-7.74005859 4.12886719 -7.74005859 4.12886719 -8.94140625 4.1328125 C-11 4 -11 4 -13 3 C-13 2.34 -13 1.68 -13 1 C-8.61414671 0.29826347 -4.44209357 -0.10834375 0 0 Z " fill="#1F5AC3" transform="translate(91,139)"/>
<path d="M0 0 C1.12977926 3.42161718 0.88887425 5.97651169 0.25 9.5 C0.01023437 10.90765625 0.01023437 10.90765625 -0.234375 12.34375 C-1.04184554 15.14517842 -2.11466407 16.80389442 -4 19 C-4.53699151 11.88486245 -2.69707634 6.55004254 0 0 Z " fill="#CFE5FC" transform="translate(59,61)"/>
<path d="M0 0 C1 2 1 2 0.3125 4.25 C-1.20437364 7.42821143 -2.85451393 10.20436664 -5 13 C-5.99 13 -6.98 13 -8 13 C-6.40956621 7.91061189 -3.2553049 4.12543357 0 0 Z " fill="#D3E9F8" transform="translate(68,48)"/>
<path d="M0 0 C0.515625 0.680625 1.03125 1.36125 1.5625 2.0625 C0.9025 2.0625 0.2425 2.0625 -0.4375 2.0625 C-0.1075 3.3825 0.2225 4.7025 0.5625 6.0625 C-1.0875 5.7325 -2.7375 5.4025 -4.4375 5.0625 C-4.56125 4.134375 -4.56125 4.134375 -4.6875 3.1875 C-5.25008459 0.87812433 -5.25008459 0.87812433 -7.5 -0.1875 C-8.139375 -0.435 -8.77875 -0.6825 -9.4375 -0.9375 C-3.0375 -2.41442308 -3.0375 -2.41442308 0 0 Z " fill="#6CCAE0" transform="translate(120.4375,138.9375)"/>
<path d="M0 0 C7.39449541 0.59633028 7.39449541 0.59633028 11 3 C-2.6332574 4.33257403 -2.6332574 4.33257403 -9 3 C-9 2.67 -9 2.34 -9 2 C-6.94921875 1.77213542 -4.8984375 1.54427083 -2.84765625 1.31640625 C-0.98859771 1.18113386 -0.98859771 1.18113386 0 0 Z " fill="#DEF8FB" transform="translate(60,140)"/>
<path d="M0 0 C0.99 0 1.98 0 3 0 C2.73914918 5.30396666 2.73914918 5.30396666 2 8 C-0.87433225 10.42049032 -2.24181381 11 -6 11 C-5.65066406 10.54109375 -5.30132812 10.0821875 -4.94140625 9.609375 C-4.48636719 8.99578125 -4.03132813 8.3821875 -3.5625 7.75 C-3.11003906 7.14671875 -2.65757813 6.5434375 -2.19140625 5.921875 C-0.96099003 3.93707244 -0.43887332 2.28012345 0 0 Z " fill="#DAEFFB" transform="translate(98,110)"/>
<path d="M0 0 C0.66 0 1.32 0 2 0 C2.12375 1.2375 2.2475 2.475 2.375 3.75 C2.75746305 6.8762197 3.30549523 9.28879237 5 12 C3.125 11.6875 3.125 11.6875 1 11 C-1.43769218 7.34346173 -1.23944439 5.30999899 -1 1 C-0.67 0.67 -0.34 0.34 0 0 Z " fill="#E1FCFD" transform="translate(100,144)"/>
<path d="M0 0 C1.65 0 3.3 0 5 0 C3.68 0.33 2.36 0.66 1 1 C1 1.99 1 2.98 1 4 C0.34 4 -0.32 4 -1 4 C-1 5.32 -1 6.64 -1 8 C1.64 8 4.28 8 7 8 C6.01 9.485 6.01 9.485 5 11 C-0.875 10.125 -0.875 10.125 -2 9 C-2.04092937 6.66702567 -2.04241723 4.33294775 -2 2 C-1.34 2 -0.68 2 0 2 C0 1.34 0 0.68 0 0 Z " fill="#CCFAFA" transform="translate(51,126)"/>
<path d="M0 0 C0.38218767 1.65614657 0.71395102 3.32457024 1 5 C0 6 0 6 -2.5625 6.0625 C-3.7690625 6.0315625 -3.7690625 6.0315625 -5 6 C-5.33 4.35 -5.66 2.7 -6 1 C-4 0 -4 0 0 0 Z " fill="#FAF8F5" transform="translate(79,101)"/>
<path d="M0 0 C1.125 3.75 1.125 3.75 0 6 C-0.07116382 8.37402501 -0.08409085 10.75000677 -0.0625 13.125 C-0.05347656 14.40632813 -0.04445313 15.68765625 -0.03515625 17.0078125 C-0.02355469 17.99523437 -0.01195313 18.98265625 0 20 C-3.14327569 16.31621394 -3.44506221 14.03847631 -3.3046875 9.328125 C-2.84480348 5.81413942 -1.60670801 3.14646985 0 0 Z " fill="#326CBC" transform="translate(87,70)"/>
<path d="M0 0 C1.32 0.33 2.64 0.66 4 1 C3.34 1 2.68 1 2 1 C-0.10428384 6.12919186 -0.21755666 10.5610835 0 16 C-0.99 15.34 -1.98 14.68 -3 14 C-3.56764563 8.32354367 -2.99356446 4.98927411 0 0 Z " fill="#E1FCFD" transform="translate(44,122)"/>
<path d="M0 0 C0.66 0.33 1.32 0.66 2 1 C1.95875 2.051875 1.9175 3.10375 1.875 4.1875 C2.01672344 8.51006484 3.10568127 11.21136255 5 15 C3.35 14.67 1.7 14.34 0 14 C0 13.34 0 12.68 0 12 C-0.66 12 -1.32 12 -2 12 C-1.855625 11.319375 -1.71125 10.63875 -1.5625 9.9375 C-0.93054091 6.63726918 -0.45686059 3.32855574 0 0 Z " fill="#DAF7F1" transform="translate(94,77)"/>
<path d="M0 0 C1.65 0.33 3.3 0.66 5 1 C5 1.66 5 2.32 5 3 C6.65 3 8.3 3 10 3 C8.68 3.33 7.36 3.66 6 4 C5.67 5.32 5.34 6.64 5 8 C3.68 7.67 2.36 7.34 1 7 C1.66 7 2.32 7 3 7 C2.67 6.01 2.34 5.02 2 4 C1.01 3.67 0.02 3.34 -1 3 C-0.67 2.01 -0.34 1.02 0 0 Z " fill="#87D9E5" transform="translate(138,47)"/>
<path d="M0 0 C2 2 2 2 2 6 C4.97 6.495 4.97 6.495 8 7 C8 7.66 8 8.32 8 9 C2.57142857 9.36190476 2.57142857 9.36190476 0.125 7.8125 C-1.36366316 5.41409825 -1.29178308 3.77193929 -1 1 C-0.67 0.67 -0.34 0.34 0 0 Z " fill="#CDFAFA" transform="translate(108,144)"/>
<path d="M0 0 C0.33 0 0.66 0 1 0 C1 2.64 1 5.28 1 8 C1.66 8 2.32 8 3 8 C3 8.66 3 9.32 3 10 C1.35 10 -0.3 10 -2 10 C-3.05236973 6.65155086 -3.20005388 5.40920111 -1.625 2.1875 C-1.08875 1.465625 -0.5525 0.74375 0 0 Z " fill="#E4F2F7" transform="translate(125,134)"/>
<path d="M0 0 C1.25541557 3.76624671 0.37061958 5.37188934 -1 9 C-2.98 8.34 -4.96 7.68 -7 7 C-6.8125 5.125 -6.8125 5.125 -6 3 C-3.5 1.8125 -3.5 1.8125 -1 1 C-0.67 0.67 -0.34 0.34 0 0 Z " fill="#F5FBEE" transform="translate(99,125)"/>
<path d="M0 0 C1.00289062 0.10183594 2.00578125 0.20367187 3.0390625 0.30859375 C3.80992188 0.39238281 4.58078125 0.47617188 5.375 0.5625 C5.045 1.5525 4.715 2.5425 4.375 3.5625 C0.415 3.2325 -3.545 2.9025 -7.625 2.5625 C-7.625 1.9025 -7.625 1.2425 -7.625 0.5625 C-4.89657939 -0.80171031 -3.01546682 -0.31557211 0 0 Z " fill="#185CD2" transform="translate(77.625,121.4375)"/>
<path d="M0 0 C0.33 0.66 0.66 1.32 1 2 C0.67 2.66 0.34 3.32 0 4 C-0.25 7 -0.25 7 0 10 C0.66 10.66 1.32 11.32 2 12 C2 13.32 2 14.64 2 16 C0.0625 15.5 0.0625 15.5 -2 14 C-3.196494 9.21402399 -3.44714056 7.08869006 -1.5625 2.5 C-1.046875 1.675 -0.53125 0.85 0 0 Z " fill="#89D1D7" transform="translate(69,96)"/>
<path d="M0 0 C1.42505859 0.00580078 1.42505859 0.00580078 2.87890625 0.01171875 C5.4375 0.3125 5.4375 0.3125 8.4375 2.3125 C2.4975 2.6425 -3.4425 2.9725 -9.5625 3.3125 C-5.44303936 0.22290452 -4.79004504 -0.08472189 0 0 Z " fill="#D9F2FB" transform="translate(104.5625,65.6875)"/>
<path d="M0 0 C2.46278801 2.46278801 2.99771255 4.70676982 4 8 C4.66 8 5.32 8 6 8 C5.67 8.99 5.34 9.98 5 11 C5 10.34 5 9.68 5 9 C2.11980724 7.53347983 -0.79308515 6.17952126 -3.75 4.875 C-4.94882813 4.34519531 -4.94882813 4.34519531 -6.171875 3.8046875 C-6.77515625 3.53914063 -7.3784375 3.27359375 -8 3 C-5.50935112 2.31292445 -3.62113708 2 -1 2 C-0.67 1.34 -0.34 0.68 0 0 Z " fill="#CDE4FA" transform="translate(117,59)"/>
<path d="M0 0 C3.70129644 0.38961015 5.61879622 1.11749016 8 4 C7.01 4.495 7.01 4.495 6 5 C6.66 5.66 7.32 6.32 8 7 C7.01 7.495 7.01 7.495 6 8 C3.9375 7.3125 3.9375 7.3125 2 6 C1.375 3.9375 1.375 3.9375 1 2 C0.34 1.67 -0.32 1.34 -1 1 C-0.67 0.67 -0.34 0.34 0 0 Z " fill="#FDFAFC" transform="translate(69,49)"/>
<path d="M0 0 C-3.65728405 2.43818936 -6.93287895 2.6716692 -11.1875 3.125 C-11.93708984 3.21136719 -12.68667969 3.29773437 -13.45898438 3.38671875 C-15.30517412 3.59838382 -17.15249344 3.80015464 -19 4 C-19 3.01 -19 2.02 -19 1 C-16.95857606 0.83038614 -14.91684689 0.66444404 -12.875 0.5 C-11.16957031 0.36078125 -11.16957031 0.36078125 -9.4296875 0.21875 C-6.27402851 0.0174779 -3.16078835 -0.03842904 0 0 Z " fill="#175DDB" transform="translate(110,47)"/>
<path d="M0 0 C1.9375 0.5 1.9375 0.5 4 2 C5.5033557 8.65771812 5.5033557 8.65771812 4.0625 12.5 C3.711875 12.995 3.36125 13.49 3 14 C2.34 14 1.68 14 1 14 C1.01160156 13.24074219 1.02320313 12.48148438 1.03515625 11.69921875 C1.04417969 10.70535156 1.05320313 9.71148437 1.0625 8.6875 C1.07990234 7.20830078 1.07990234 7.20830078 1.09765625 5.69921875 C1.12329862 2.90036151 1.12329862 2.90036151 0 0 Z " fill="#D5F7F8" transform="translate(154,37)"/>
<path d="M0 0 C0.66 0 1.32 0 2 0 C4.03684712 4.07369424 4.0257259 6.58937864 3 11 C2.01 10.01 1.02 9.02 0 8 C-0.99 8.495 -0.99 8.495 -2 9 C-2 7.35 -2 5.7 -2 4 C-1.01 4 -0.02 4 1 4 C0.67 2.68 0.34 1.36 0 0 Z " fill="#8BD5DD" transform="translate(120,141)"/>
<path d="M0 0 C2 3 2 3 2 5 C4.64 4.67 7.28 4.34 10 4 C10.33 2.68 10.66 1.36 11 0 C11.125 2.375 11.125 2.375 11 5 C9 7 9 7 5.5 7.3125 C4.345 7.209375 3.19 7.10625 2 7 C0 4 0 4 0 0 Z " fill="#CEF8FA" transform="translate(140,136)"/>
<path d="M0 0 C3.63 0 7.26 0 11 0 C11 0.33 11 0.66 11 1 C8.69 1 6.38 1 4 1 C4 1.66 4 2.32 4 3 C4.66 3.33 5.32 3.66 6 4 C4.5629191 4.05422947 3.12524538 4.09289723 1.6875 4.125 C0.88699219 4.14820313 0.08648437 4.17140625 -0.73828125 4.1953125 C-3 4 -3 4 -6 2 C-4.02 1.67 -2.04 1.34 0 1 C0 0.67 0 0.34 0 0 Z " fill="#376DC6" transform="translate(74,139)"/>
<path d="M0 0 C1.41623216 -0.05447047 2.83308191 -0.09300508 4.25 -0.125 C5.03890625 -0.14820313 5.8278125 -0.17140625 6.640625 -0.1953125 C9.20731941 0.0171622 10.7916067 0.71345895 13 2 C12.67 2.66 12.34 3.32 12 4 C8.04 3.67 4.08 3.34 0 3 C0 2.01 0 1.02 0 0 Z " fill="#195ACE" transform="translate(103,62)"/>
<path d="M0 0 C3.06255961 -0.0270491 6.1248786 -0.04686298 9.1875 -0.0625 C10.05181641 -0.07087891 10.91613281 -0.07925781 11.80664062 -0.08789062 C16.00286769 -0.10396812 19.90936886 -0.07559038 24 1 C24 1.33 24 1.66 24 2 C23.10796875 1.98839844 22.2159375 1.97679687 21.296875 1.96484375 C20.12640625 1.95582031 18.9559375 1.94679687 17.75 1.9375 C16.58984375 1.92589844 15.4296875 1.91429687 14.234375 1.90234375 C11.59022872 1.98217908 9.50173909 2.21356222 7 3 C7 2.34 7 1.68 7 1 C4.69 1 2.38 1 0 1 C0 0.67 0 0.34 0 0 Z " fill="#D8EAFC" transform="translate(94,34)"/>
<path d="M0 0 C3.465 1.98 3.465 1.98 7 4 C7 4.66 7 5.32 7 6 C6.34 6 5.68 6 5 6 C5 6.66 5 7.32 5 8 C0.125 6.25 0.125 6.25 -1 4 C-0.34 4 0.32 4 1 4 C0.67 2.68 0.34 1.36 0 0 Z " fill="#346AC6" transform="translate(65,116)"/>
<path d="M0 0 C1.76923828 0.01353516 1.76923828 0.01353516 3.57421875 0.02734375 C4.47785156 0.03894531 5.38148437 0.05054688 6.3125 0.0625 C6.3125 0.3925 6.3125 0.7225 6.3125 1.0625 C3.6725 1.0625 1.0325 1.0625 -1.6875 1.0625 C-1.6875 1.7225 -1.6875 2.3825 -1.6875 3.0625 C-2.863125 3.0315625 -2.863125 3.0315625 -4.0625 3 C-6.66864961 2.87565937 -6.66864961 2.87565937 -8.6875 4.0625 C-10.36404729 3.78307545 -12.03358154 3.45421753 -13.6875 3.0625 C-8.91955969 0.59632398 -5.38407674 -0.05330769 0 0 Z " fill="#B4D3F1" transform="translate(105.6875,49.9375)"/>
<path d="M0 0 C1.32 0.66 2.64 1.32 4 2 C3.67 5.3 3.34 8.6 3 12 C2.01 11.67 1.02 11.34 0 11 C0 9.02 0 7.04 0 5 C-0.66 4.67 -1.32 4.34 -2 4 C-1.34 3.67 -0.68 3.34 0 3 C0 2.01 0 1.02 0 0 Z " fill="#82D7DA" transform="translate(151,36)"/>
<path d="M0 0 C0.33 1.32 0.66 2.64 1 4 C1.99 4 2.98 4 4 4 C4.33 3.34 4.66 2.68 5 2 C5.33 3.32 5.66 4.64 6 6 C4.35 6 2.7 6 1 6 C1 6.66 1 7.32 1 8 C-0.32 8.33 -1.64 8.66 -3 9 C-3 7.68 -3 6.36 -3 5 C-2.01 5 -1.02 5 0 5 C0 3.35 0 1.7 0 0 Z " fill="#6CC0DD" transform="translate(145,123)"/>
<path d="M0 0 C1.79616598 1.79616598 2.86491046 3.26734579 4.125 5.4375 C4.47820313 6.03433594 4.83140625 6.63117188 5.1953125 7.24609375 C6 9 6 9 6 12 C5.67 11.34 5.34 10.68 5 10 C4.360625 9.71125 3.72125 9.4225 3.0625 9.125 C0.51457192 7.73522105 -0.11323893 6.74089785 -1 4 C-0.625 1.75 -0.625 1.75 0 0 Z " fill="#DEF0FE" transform="translate(55,108)"/>
<path d="M0 0 C0.99 0 1.98 0 3 0 C3 3.63 3 7.26 3 11 C2.01 10.67 1.02 10.34 0 10 C0 6.7 0 3.4 0 0 Z " fill="#6ED4D0" transform="translate(121,102)"/>
<path d="M0 0 C3 3.75 3 3.75 3 6 C2.34 6 1.68 6 1 6 C0.67 6.66 0.34 7.32 0 8 C-1.98 8 -3.96 8 -6 8 C-6 7.34 -6 6.68 -6 6 C-7.65 6 -9.3 6 -11 6 C-11 5.67 -11 5.34 -11 5 C-7.7 5.33 -4.4 5.66 -1 6 C-0.67 4.02 -0.34 2.04 0 0 Z " fill="#C5E8F5" transform="translate(85,88)"/>
<path d="M0 0 C1.98 0.99 1.98 0.99 4 2 C4.17835515 6.54805635 3.99785435 9.8794254 2 14 C1.67 14 1.34 14 1 14 C1.01740234 13.11248047 1.01740234 13.11248047 1.03515625 12.20703125 C1.08322386 7.99768215 1.06006883 4.1077667 0 0 Z " fill="#D5F5FC" transform="translate(122,114)"/>
<path d="M0 0 C0.33 0.66 0.66 1.32 1 2 C-1.59980864 5.32957948 -4.11064555 5.61761712 -8.1875 6.1875 C-9.27417969 6.34605469 -10.36085937 6.50460938 -11.48046875 6.66796875 C-12.31191406 6.77753906 -13.14335937 6.88710938 -14 7 C-14.33 6.01 -14.66 5.02 -15 4 C-14.41992188 4.04640625 -13.83984375 4.0928125 -13.2421875 4.140625 C-7.40942269 4.41012568 -4.5242125 3.71217436 0 0 Z " fill="#CEF7F9" transform="translate(154,51)"/>
<path d="M0 0 C0.99 0.33 1.98 0.66 3 1 C3.33 2.98 3.66 4.96 4 7 C4.99 6.67 5.98 6.34 7 6 C7 6.66 7 7.32 7 8 C1.25 7.25 1.25 7.25 -1 5 C-0.625 2.375 -0.625 2.375 0 0 Z " fill="#F2FCE8" transform="translate(74,45)"/>
<path d="M0 0 C0.33 0.66 0.66 1.32 1 2 C-0.670625 2.4021875 -0.670625 2.4021875 -2.375 2.8125 C-6.21840951 3.65809019 -6.21840951 3.65809019 -8 7 C-8.45139459 9.0492094 -8.45139459 9.0492094 -8.625 11.1875 C-8.74875 12.445625 -8.8725 13.70375 -9 15 C-9.33 15 -9.66 15 -10 15 C-10.61986755 5.97748344 -10.61986755 5.97748344 -8.375 2.4375 C-5.56538113 0.73694121 -3.25162799 0.29560254 0 0 Z " fill="#D8F6FA" transform="translate(144,126)"/>
<path d="M0 0 C4.61513112 1.31860889 8.09897612 3.21355437 12 6 C9.3333581 7.33332095 7.83319697 6.67102033 5 6 C5 5.34 5 4.68 5 4 C2.525 3.01 2.525 3.01 0 2 C0 1.34 0 0.68 0 0 Z " fill="#D5EEFB" transform="translate(116,52)"/>
<path d="M0 0 C1.5625 1.1875 1.5625 1.1875 3 3 C2.6875 5.6875 2.6875 5.6875 2 8 C3.32 8.33 4.64 8.66 6 9 C6 9.99 6 10.98 6 12 C3.63189682 11.05275873 2.24792047 10.34708866 0.75 8.25 C-0.19251213 5.42246362 -0.1345485 2.96006696 0 0 Z " fill="#82D2CC" transform="translate(135,42)"/>
<path d="M0 0 C1.65 0 3.3 0 5 0 C5.33 1.65 5.66 3.3 6 5 C4.35 5 2.7 5 1 5 C0.67 3.35 0.34 1.7 0 0 Z " fill="#FCFAF8" transform="translate(142,42)"/>
<path d="M0 0 C2 3 2 3 1.9375 4.875 C0.59492632 7.91816701 -1.58070901 9.76680832 -4 12 C-4.99 11.67 -5.98 11.34 -7 11 C-5.71034824 9.62437146 -4.37310707 8.29233607 -3 7 C-2.34 7 -1.68 7 -1 7 C-0.67 4.69 -0.34 2.38 0 0 Z " fill="#EEFDFD" transform="translate(157,139)"/>
<path d="M0 0 C0.99 0 1.98 0 3 0 C3.33 2.31 3.66 4.62 4 7 C2.68 7.33 1.36 7.66 0 8 C0 5.36 0 2.72 0 0 Z " fill="#70D5D5" transform="translate(137,136)"/>
<path d="M0 0 C0.66 0 1.32 0 2 0 C2.04241723 2.33294775 2.04092937 4.66702567 2 7 C1 8 1 8 -2.0625 8.0625 C-3.031875 8.041875 -4.00125 8.02125 -5 8 C-5 7.01 -5 6.02 -5 5 C-3.35 4.67 -1.7 4.34 0 4 C0 2.68 0 1.36 0 0 Z " fill="#D7FAFA" transform="translate(79,102)"/>
<path d="M0 0 C3.89059081 3.27789934 3.89059081 3.27789934 4.390625 6.578125 C4.34421875 7.45984375 4.2978125 8.3415625 4.25 9.25 C4.21390625 10.14203125 4.1778125 11.0340625 4.140625 11.953125 C4.09421875 12.62859375 4.0478125 13.3040625 4 14 C1.37548383 11.37548383 1.4167132 9.5122172 0.875 5.875 C0.70742187 4.77929688 0.53984375 3.68359375 0.3671875 2.5546875 C0.24601562 1.71164063 0.12484375 0.86859375 0 0 Z " fill="#DDF0FA" transform="translate(90,96)"/>
<path d="M0 0 C4.21228561 1.56010578 6.34546845 4.4845393 9 8 C9.33 8.99 9.66 9.98 10 11 C9.34 11 8.68 11 8 11 C7.7525 10.38125 7.505 9.7625 7.25 9.125 C5.79371361 6.64931313 4.62187494 6.04874998 2 5 C2 4.34 2 3.68 2 3 C1.34 3 0.68 3 0 3 C0 2.01 0 1.02 0 0 Z " fill="#B8DFF6" transform="translate(128,59)"/>
<path d="M0 0 C1.32 0.33 2.64 0.66 4 1 C4.08131463 2.43655854 4.13933559 3.8744483 4.1875 5.3125 C4.22230469 6.11300781 4.25710937 6.91351563 4.29296875 7.73828125 C3.93801608 10.47851584 3.10633718 11.29171079 1 13 C1.01160156 12.31292969 1.02320313 11.62585938 1.03515625 10.91796875 C1.04417969 10.01691406 1.05320313 9.11585937 1.0625 8.1875 C1.07410156 7.29417969 1.08570313 6.40085937 1.09765625 5.48046875 C1.11009967 2.86586209 1.11009967 2.86586209 0 0 Z " fill="#C3F1F4" transform="translate(138,99)"/>
<path d="M0 0 C2.33936818 2.12669835 3.80653848 4.06224856 5 7 C5 7.99 5 8.98 5 10 C4.01 10 3.02 10 2 10 C2 8.02 2 6.04 2 4 C1.01 4.33 0.02 4.66 -1 5 C-0.67 3.35 -0.34 1.7 0 0 Z " fill="#CAE8F7" transform="translate(138,70)"/>
<path d="M0 0 C1.98 0.99 1.98 0.99 4 2 C4 4.31 4 6.62 4 9 C3.34 9 2.68 9 2 9 C0.14223235 5.86501708 -0.20140476 3.62528568 0 0 Z " fill="#2562CD" transform="translate(120,69)"/>
<path d="M0 0 C0.28875 0.639375 0.5775 1.27875 0.875 1.9375 C1.82823451 4.15206079 1.82823451 4.15206079 4 5 C4 6.32 4 7.64 4 9 C2.35 8.67 0.7 8.34 -1 8 C-0.67 5.36 -0.34 2.72 0 0 Z " fill="#78D1CD" transform="translate(105,147)"/>
<path d="M0 0 C1.32 0.66 2.64 1.32 4 2 C4 3.32 4 4.64 4 6 C1.03 5.505 1.03 5.505 -2 5 C-1.34 3.35 -0.68 1.7 0 0 Z " fill="#F9FAF5" transform="translate(54,128)"/>
<path d="M0 0 C0.33 1.32 0.66 2.64 1 4 C1.99 4 2.98 4 4 4 C3.67 4.99 3.34 5.98 3 7 C0.9375 7.6875 0.9375 7.6875 -1 8 C-1.66 6.35 -2.32 4.7 -3 3 C-2.01 3 -1.02 3 0 3 C0 2.01 0 1.02 0 0 Z " fill="#8AD1DC" transform="translate(135,108)"/>
<path d="M0 0 C0.33 0.99 0.66 1.98 1 3 C-0.75 5.0625 -0.75 5.0625 -3 7 C-5.25 6.75 -5.25 6.75 -7 6 C-6.67 5.01 -6.34 4.02 -6 3 C-3.5 1.875 -3.5 1.875 -1 1 C-0.67 0.67 -0.34 0.34 0 0 Z " fill="#7AD4DD" transform="translate(150,48)"/>
<path d="M0 0 C2.38564077 0.57584432 4.66682784 1.22227595 7 2 C7.33 4.97 7.66 7.94 8 11 C7.34 10.67 6.68 10.34 6 10 C5.896875 9.21625 5.79375 8.4325 5.6875 7.625 C5.24815013 4.75404914 5.24815013 4.75404914 2.4375 3.3125 C1.633125 2.879375 0.82875 2.44625 0 2 C0 1.34 0 0.68 0 0 Z " fill="#CEF5FA" transform="translate(128,39)"/>
<path d="M0 0 C1.98 0.66 3.96 1.32 6 2 C5.67 3.32 5.34 4.64 5 6 C3.35 5.67 1.7 5.34 0 5 C0 3.35 0 1.7 0 0 Z " fill="#3B6CC0" transform="translate(131,35)"/>
<path d="M0 0 C-3.42346555 3.14958831 -6.44262737 3.56179109 -11 4 C-10.67 3.01 -10.34 2.02 -10 1 C-6.34742296 -0.62336757 -3.80637601 -1.46399077 0 0 Z " fill="#2257C5" transform="translate(84,37)"/>
<path d="M0 0 C0.66 0.33 1.32 0.66 2 1 C1.38722388 3.96175123 0.74627478 5.38058783 -1 8 C-1.99 7.67 -2.98 7.34 -4 7 C-4 6.34 -4 5.68 -4 5 C-3.34 5 -2.68 5 -2 5 C-1.34 3.35 -0.68 1.7 0 0 Z " fill="#1A63C9" transform="translate(123,132)"/>
<path d="M0 0 C0 1.65 0 3.3 0 5 C-2.31 4.67 -4.62 4.34 -7 4 C-3.375 0 -3.375 0 0 0 Z " fill="#FCFBEA" transform="translate(119,130)"/>
<path d="M0 0 C4.875 2.75 4.875 2.75 6 5 C4.68 4.67 3.36 4.34 2 4 C2.33 5.98 2.66 7.96 3 10 C2.67 9.34 2.34 8.68 2 8 C1.01 7.67 0.02 7.34 -1 7 C-0.34 6.67 0.32 6.34 1 6 C0.67 4.02 0.34 2.04 0 0 Z " fill="#DAF5FA" transform="translate(113,68)"/>
<path d="M0 0 C0.66 0 1.32 0 2 0 C2.33 0.99 2.66 1.98 3 3 C1.68 4.32 0.36 5.64 -1 7 C-1.66 6.67 -2.32 6.34 -3 6 C-1.125 1.125 -1.125 1.125 0 0 Z " fill="#DCF1FC" transform="translate(78,63)"/>
<path d="M0 0 C2.475 0.495 2.475 0.495 5 1 C5 2.32 5 3.64 5 5 C4.01 5.33 3.02 5.66 2 6 C1.34 5.67 0.68 5.34 0 5 C0 3.35 0 1.7 0 0 Z " fill="#FCF9F3" transform="translate(110,145)"/>
<path d="M0 0 C1.98 0 3.96 0 6 0 C6 0.66 6 1.32 6 2 C7.32 2 8.64 2 10 2 C10 2.66 10 3.32 10 4 C6.06329512 5.31223496 3.87511856 4.24296256 0 3 C0 2.01 0 1.02 0 0 Z " fill="#7ADBE4" transform="translate(51,123)"/>
<path d="M0 0 C2.64 0.33 5.28 0.66 8 1 C8.33 2.32 8.66 3.64 9 5 C8.01 5 7.02 5 6 5 C6 4.34 6 3.68 6 3 C4.68 3.33 3.36 3.66 2 4 C2 3.34 2 2.68 2 2 C1.34 2 0.68 2 0 2 C0 1.34 0 0.68 0 0 Z " fill="#6FD1CD" transform="translate(125,111)"/>
<path d="M0 0 C1.98 0.495 1.98 0.495 4 1 C3.67 2.65 3.34 4.3 3 6 C1.68 5.34 0.36 4.68 -1 4 C-0.67 2.68 -0.34 1.36 0 0 Z " fill="#FAF9F1" transform="translate(104,80)"/>
<path d="M0 0 C1.32 0 2.64 0 4 0 C4 1.65 4 3.3 4 5 C2.68 5 1.36 5 0 5 C0 4.34 0 3.68 0 3 C-0.66 2.67 -1.32 2.34 -2 2 C-1.34 2 -0.68 2 0 2 C0 1.34 0 0.68 0 0 Z " fill="#F8F5F6" transform="translate(145,135)"/>
<path d="M0 0 C0.99 0.66 1.98 1.32 3 2 C2.67 2.66 2.34 3.32 2 4 C-0.97 4 -3.94 4 -7 4 C-4.61426621 2.10786631 -2.92824652 0.97608217 0 0 Z " fill="#D3ECEC" transform="translate(91,122)"/>
<path d="M0 0 C2.475 0.99 2.475 0.99 5 2 C4.34 3.98 3.68 5.96 3 8 C1.5 6.8125 1.5 6.8125 0 5 C-0.1875 2.3125 -0.1875 2.3125 0 0 Z " fill="#E2F9F7" transform="translate(85,93)"/>
<path d="M0 0 C0.99 0 1.98 0 3 0 C3 2.31 3 4.62 3 7 C2.01 7.33 1.02 7.66 0 8 C0 5.36 0 2.72 0 0 Z " fill="#F3FCE9" transform="translate(75,69)"/>
<path d="M0 0 C0.99 0.66 1.98 1.32 3 2 C2.45276317 5.37462715 1.9451 7.08235 0 10 C0 8.35 0 6.7 0 5 C-0.66 5 -1.32 5 -2 5 C-1.34 3.35 -0.68 1.7 0 0 Z " fill="#3368C5" transform="translate(57,56)"/>
<path d="M0 0 C2.00720923 0.28674418 4.0085944 0.61866701 6 1 C5.67 1.66 5.34 2.32 5 3 C3.68 3 2.36 3 1 3 C1 3.99 1 4.98 1 6 C0.34 6 -0.32 6 -1 6 C-1.042721 4.33388095 -1.04063832 2.66617115 -1 1 C-0.67 0.67 -0.34 0.34 0 0 Z " fill="#F6FBF7" transform="translate(90,60)"/>
<path d="M0 0 C3.3 0 6.6 0 10 0 C9.01 1.485 9.01 1.485 8 3 C5.36 2.67 2.72 2.34 0 2 C0 1.34 0 0.68 0 0 Z " fill="#D0F4F7" transform="translate(110,135)"/>
<path d="M0 0 C0 0.99 0 1.98 0 3 C-0.99 3.495 -0.99 3.495 -2 4 C-2.33 4.99 -2.66 5.98 -3 7 C-3.66 7 -4.32 7 -5 7 C-5.33 6.01 -5.66 5.02 -6 4 C-2.25 0 -2.25 0 0 0 Z " fill="#88D7DC" transform="translate(142,128)"/>
<path d="M0 0 C0.66 0.33 1.32 0.66 2 1 C0.515 3.475 0.515 3.475 -1 6 C-1.99 5.67 -2.98 5.34 -4 5 C-4 4.01 -4 3.02 -4 2 C-2.125 0.9375 -2.125 0.9375 0 0 Z " fill="#1D5AC5" transform="translate(88,119)"/>
<path d="M0 0 C0.99 0.33 1.98 0.66 3 1 C2.67 1.33 2.34 1.66 2 2 C1.92851801 3.35243917 1.91600546 4.70834367 1.9375 6.0625 C1.958125 7.361875 1.97875 8.66125 2 10 C2.66 10.33 3.32 10.66 4 11 C2.68 11 1.36 11 0 11 C0 7.37 0 3.74 0 0 Z " fill="#93DAE5" transform="translate(100,78)"/>
<path d="M0 0 C2 2 2 2 2 5 C2.66 5 3.32 5 4 5 C4 6.98 4 8.96 4 11 C1.9656541 9.58480285 1.09589607 8.45017877 0.578125 6.01953125 C0.33726048 4.01823046 0.16467259 2.0090056 0 0 Z " fill="#1E56CC" transform="translate(146,81)"/>
<path d="M0 0 C0 3.3 0 6.6 0 10 C-0.66 9.67 -1.32 9.34 -2 9 C-2 7.35 -2 5.7 -2 4 C-2.66 4 -3.32 4 -4 4 C-4 3.34 -4 2.68 -4 2 C-1 0 -1 0 0 0 Z " fill="#FAF9EE" transform="translate(152,69)"/>
<path d="M0 0 C2.05078125 0.03255208 4.1015625 0.06510417 6.15234375 0.09765625 C1.40234375 3.97265625 1.40234375 3.97265625 -0.84765625 5.09765625 C-0.84765625 4.10765625 -0.84765625 3.11765625 -0.84765625 2.09765625 C-1.50765625 1.76765625 -2.16765625 1.43765625 -2.84765625 1.09765625 C-1.84765625 0.09765625 -1.84765625 0.09765625 0 0 Z " fill="#2B64BC" transform="translate(92.84765625,65.90234375)"/>
<path d="M0 0 C0.66 0.99 1.32 1.98 2 3 C-1.81489674 4.46726798 -4.29011622 3.43336419 -8 2 C-8 1.67 -8 1.34 -8 1 C-5.36 0.67 -2.72 0.34 0 0 Z " fill="#2C69C1" transform="translate(120,49)"/>
<path d="M0 0 C-4.625 4 -4.625 4 -8 4 C-7.67 2.68 -7.34 1.36 -7 0 C-3.98968256 -0.93423645 -3.13349732 -1.04449911 0 0 Z " fill="#6DD3D7" transform="translate(113,141)"/>
<path d="M0 0 C0 0.66 0 1.32 0 2 C-3.02525676 4.40240978 -4.4125871 5.05541631 -8.3125 4.6875 C-9.199375 4.460625 -10.08625 4.23375 -11 4 C-3.28571429 0 -3.28571429 0 0 0 Z " fill="#BCDAF5" transform="translate(100,139)"/>
<path d="M0 0 C0.33 0 0.66 0 1 0 C1 2.31 1 4.62 1 7 C-0.32 7.33 -1.64 7.66 -3 8 C-3 6.68 -3 5.36 -3 4 C-2.34 3.67 -1.68 3.34 -1 3 C-0.67 2.01 -0.34 1.02 0 0 Z " fill="#EDFCFE" transform="translate(144,119)"/>
<path d="M0 0 C0.99 0 1.98 0 3 0 C3 0.66 3 1.32 3 2 C3.99 2.33 4.98 2.66 6 3 C5.34 3 4.68 3 4 3 C3.67 3.66 3.34 4.32 3 5 C3 4.34 3 3.68 3 3 C1.68 3 0.36 3 -1 3 C-1.33 3.99 -1.66 4.98 -2 6 C-1.125 1.125 -1.125 1.125 0 0 Z " fill="#7FD1ED" transform="translate(128,114)"/>
<path d="M0 0 C1 2 1 2 0.22265625 4.3828125 C-0.16019531 5.28773437 -0.54304688 6.19265625 -0.9375 7.125 C-1.31777344 8.03507812 -1.69804688 8.94515625 -2.08984375 9.8828125 C-2.39019531 10.58148438 -2.69054687 11.28015625 -3 12 C-3.33 12 -3.66 12 -4 12 C-3.5317879 7.22423661 -2.75668002 3.95523655 0 0 Z " fill="#B8D9FB" transform="translate(92,71)"/>
<path d="M0 0 C0.66 0 1.32 0 2 0 C2 2.64 2 5.28 2 8 C1.01 8 0.02 8 -1 8 C-0.67 5.36 -0.34 2.72 0 0 Z " fill="#FAFEF1" transform="translate(58,72)"/>
<path d="M0 0 C1.32 0 2.64 0 4 0 C3.37240135 2.92879371 2.41377341 5.36095629 1 8 C0.67 5.36 0.34 2.72 0 0 Z " fill="#F1FDF0" transform="translate(62,61)"/>
<path d="M0 0 C1.134375 0.020625 2.26875 0.04125 3.4375 0.0625 C1.9525 2.0425 1.9525 2.0425 0.4375 4.0625 C-2.5625 3.0625 -2.5625 3.0625 -4.5625 1.0625 C-3.5625 0.0625 -3.5625 0.0625 0 0 Z " fill="#D4ECFA" transform="translate(78.5625,52.9375)"/>
<path d="M0 0 C1.32 0.33 2.64 0.66 4 1 C3.34 2.32 2.68 3.64 2 5 C0.68 4.34 -0.64 3.68 -2 3 C-1.34 2.01 -0.68 1.02 0 0 Z " fill="#2261CE" transform="translate(65,45)"/>
<path d="M0 0 C1.98 0 3.96 0 6 0 C6 0.99 6 1.98 6 3 C3.69 3 1.38 3 -1 3 C-0.67 2.01 -0.34 1.02 0 0 Z " fill="#2157D0" transform="translate(116,32)"/>
<path d="M0 0 C3.63 0.33 7.26 0.66 11 1 C10.34 1.66 9.68 2.32 9 3 C2.53846154 2.53846154 2.53846154 2.53846154 0 0 Z " fill="#D3ECFB" transform="translate(65,135)"/>
<path d="M0 0 C0.99 1.32 1.98 2.64 3 4 C2.01 4.33 1.02 4.66 0 5 C-0.33 5.66 -0.66 6.32 -1 7 C-1.66 5.68 -2.32 4.36 -3 3 C-2.01 2.67 -1.02 2.34 0 2 C0 1.34 0 0.68 0 0 Z " fill="#7FD0CE" transform="translate(48,132)"/>
<path d="M0 0 C1.32 0 2.64 0 4 0 C3.67 1.65 3.34 3.3 3 5 C2.01 5 1.02 5 0 5 C0 3.35 0 1.7 0 0 Z " fill="#F7FCE9" transform="translate(102,119)"/>
<path d="M0 0 C0.66 0.33 1.32 0.66 2 1 C2 2.65 2 4.3 2 6 C1.01 6.33 0.02 6.66 -1 7 C-1.66 7.99 -2.32 8.98 -3 10 C-2.39009109 6.44219804 -1.4216319 3.3171411 0 0 Z " fill="#1C55C7" transform="translate(95,108)"/>
<path d="M0 0 C0.33 0 0.66 0 1 0 C1.36253776 5.43806647 1.36253776 5.43806647 -0.25 7.9375 C-2 9 -2 9 -4.1875 8.6875 C-4.785625 8.460625 -5.38375 8.23375 -6 8 C-4.6875 6.5 -4.6875 6.5 -3 5 C-2.01 5 -1.02 5 0 5 C0 3.35 0 1.7 0 0 Z " fill="#CDF7FB" transform="translate(110,80)"/>
<path d="M0 0 C0 2.31 0 4.62 0 7 C-0.33 6.34 -0.66 5.68 -1 5 C-1.99 5 -2.98 5 -4 5 C-4 3.68 -4 2.36 -4 1 C-1 0 -1 0 0 0 Z " fill="#7BCFDF" transform="translate(100,81)"/>
<path d="M0 0 C1.32 0.33 2.64 0.66 4 1 C4.33 3.31 4.66 5.62 5 8 C2.2175651 6.60878255 1.44789935 4.69835788 0 2 C0 1.34 0 0.68 0 0 Z " fill="#F1FCED" transform="translate(115,72)"/>
<path d="M0 0 C0.33 0 0.66 0 1 0 C1 1.98 1 3.96 1 6 C-1.35438733 7.42944945 -2.48032433 8.08661261 -5.25 7.625 C-5.8275 7.41875 -6.405 7.2125 -7 7 C-5.35 6.67 -3.7 6.34 -2 6 C-1.34 4.02 -0.68 2.04 0 0 Z " fill="#E8FDFD" transform="translate(156,49)"/>
<path d="M0 0 C-0.33 0.66 -0.66 1.32 -1 2 C-3.64 2 -6.28 2 -9 2 C-9 1.34 -9 0.68 -9 0 C-5.52176885 -1.15941038 -3.54104422 -0.70820884 0 0 Z " fill="#2A6AD6" transform="translate(94,32)"/>
<path d="M0 0 C2.3431213 0.25561323 4.67843403 0.59270772 7 1 C7.33 1.66 7.66 2.32 8 3 C5.36 3 2.72 3 0 3 C0 2.01 0 1.02 0 0 Z " fill="#D0ECFC" transform="translate(93,27)"/>
<path d="M0 0 C0.33 0 0.66 0 1 0 C1.33 3.96 1.66 7.92 2 12 C1.01 11.67 0.02 11.34 -1 11 C-0.67 7.37 -0.34 3.74 0 0 Z " fill="#F0FDFA" transform="translate(125,144)"/>
<path d="M0 0 C3.24208567 0.35049575 4.61527704 0.56221181 6.8125 3.0625 C7.204375 3.701875 7.59625 4.34125 8 5 C7.67 5.66 7.34 6.32 7 7 C5.83040013 6.02433888 4.66438823 5.044375 3.5 4.0625 C2.8503125 3.51722656 2.200625 2.97195312 1.53125 2.41015625 C1.0259375 1.94480469 0.520625 1.47945313 0 1 C0 0.67 0 0.34 0 0 Z " fill="#88D2CC" transform="translate(56,121)"/>
<path d="M0 0 C0 3.90838866 -1.50567876 5.11594107 -4 8 C-4.66 7.67 -5.32 7.34 -6 7 C-4.60667426 3.63279613 -3.0210714 2.0140476 0 0 Z " fill="#C5E5FE" transform="translate(92,112)"/>
<path d="M0 0 C0.33 0 0.66 0 1 0 C1.125 2.875 1.125 2.875 1 6 C0.34 6.66 -0.32 7.32 -1 8 C-1 7.34 -1 6.68 -1 6 C-1.66 6 -2.32 6 -3 6 C-2 4 -1 2 0 0 Z " fill="#75CCCC" transform="translate(121,146)"/>
<path d="M0 0 C1.485 0.99 1.485 0.99 3 2 C3.1875 5.125 3.1875 5.125 3 8 C2.01 8 1.02 8 0 8 C0 5.36 0 2.72 0 0 Z " fill="#8CD4D8" transform="translate(102,144)"/>
<path d="M0 0 C1.32 0 2.64 0 4 0 C4 0.99 4 1.98 4 3 C4.66 3.33 5.32 3.66 6 4 C4.35 4 2.7 4 1 4 C0.67 2.68 0.34 1.36 0 0 Z " fill="#7ECEE7" transform="translate(58,136)"/>
<path d="M0 0 C0.33 0 0.66 0 1 0 C1.66 3.3 2.32 6.6 3 10 C2.01 10 1.02 10 0 10 C0 6.7 0 3.4 0 0 Z " fill="#BEE5FC" transform="translate(67,85)"/>
<path d="M0 0 C0.99 0.66 1.98 1.32 3 2 C1.35 3.65 -0.3 5.3 -2 7 C-2 5.02 -2 3.04 -2 1 C-1.34 0.67 -0.68 0.34 0 0 Z " fill="#D6EDFD" transform="translate(88,65)"/>
<path d="M0 0 C3.375 -0.125 3.375 -0.125 7 0 C7.66 0.66 8.32 1.32 9 2 C3.375 3.125 3.375 3.125 0 2 C0 1.34 0 0.68 0 0 Z " fill="#F3FDEC" transform="translate(116,38)"/>
</svg>
